<?xml version="1.0" encoding="UTF-8"?>
<svg id="Veines-2" xmlns="http://www.w3.org/2000/svg" xmlns:xlink="http://www.w3.org/1999/xlink" version="1.1" viewBox="0 0 350 296">
  <defs>
    <style>
      .cls-1 {
        fill: #f4b98d;
      }

      .cls-1, .cls-2, .cls-3, .cls-4, .cls-5, .cls-6, .cls-7, .cls-8, .cls-9, .cls-10, .cls-11, .cls-12, .cls-13, .cls-14, .cls-15, .cls-16, .cls-17, .cls-18, .cls-19, .cls-20, .cls-21, .cls-22, .cls-23, .cls-24, .cls-25, .cls-26, .cls-27, .cls-28, .cls-29, .cls-30, .cls-31, .cls-32, .cls-33, .cls-34, .cls-35, .cls-36, .cls-37, .cls-38, .cls-39, .cls-40, .cls-41, .cls-42, .cls-43, .cls-44, .cls-45, .cls-46, .cls-47, .cls-48, .cls-49, .cls-50, .cls-51, .cls-52, .cls-53, .cls-54, .cls-55, .cls-56, .cls-57, .cls-58, .cls-59, .cls-60, .cls-61, .cls-62 {
        stroke-width: 0px;
      }

      .cls-2 {
        fill: #f7fbf8;
      }

      .cls-3 {
        fill: #d16e54;
      }

      .cls-4 {
        opacity: .4;
      }

      .cls-4, .cls-5, .cls-11, .cls-16 {
        isolation: isolate;
      }

      .cls-4, .cls-16, .cls-24 {
        fill: #b34a27;
      }

      .cls-5 {
        fill: #e5a78f;
      }

      .cls-5, .cls-11 {
        opacity: .5;
      }

      .cls-6 {
        fill: #e66e84;
      }

      .cls-7 {
        fill: url(#Dégradé_sans_nom);
      }

      .cls-8 {
        fill: #fce8ea;
      }

      .cls-9 {
        fill: #fbd18e;
      }

      .cls-10 {
        fill: #d47e71;
      }

      .cls-11 {
        fill: #86a6d7;
      }

      .cls-12 {
        fill: #d6786c;
      }

      .cls-13 {
        fill: #d83e5f;
      }

      .cls-14 {
        fill: #f5cfc4;
      }

      .cls-15 {
        fill: #c3d1ed;
      }

      .cls-16 {
        opacity: .2;
      }

      .cls-17 {
        fill: #e07255;
      }

      .cls-18 {
        fill: #e28577;
      }

      .cls-19 {
        fill: url(#Dégradé_sans_nom_4);
      }

      .cls-20 {
        fill: url(#Dégradé_sans_nom_5);
      }

      .cls-21 {
        fill: url(#Dégradé_sans_nom_2);
      }

      .cls-22 {
        fill: url(#Dégradé_sans_nom_3);
      }

      .cls-23 {
        fill: #b29d89;
      }

      .cls-25 {
        fill: #bdc5c1;
      }

      .cls-26 {
        fill: #e8a9a9;
      }

      .cls-27 {
        fill: #f8e6e6;
      }

      .cls-28 {
        fill: #fcdba5;
      }

      .cls-29 {
        fill: #e57e7e;
      }

      .cls-30 {
        fill: #a5b3ad;
      }

      .cls-31 {
        fill: #9d8979;
      }

      .cls-32 {
        fill: #f6e4e4;
      }

      .cls-33 {
        fill: #e49292;
      }

      .cls-34 {
        fill: #e49c9c;
      }

      .cls-35 {
        fill: #dd8a76;
      }

      .cls-36 {
        fill: #8b7c6b;
      }

      .cls-37 {
        fill: #e08d7a;
      }

      .cls-38 {
        fill: #f4d5d2;
      }

      .cls-39 {
        fill: #fad598;
      }

      .cls-40 {
        fill: #d69161;
      }

      .cls-41 {
        fill: #db8384;
      }

      .cls-42 {
        fill: #e4f0eb;
      }

      .cls-43 {
        fill: #f5a9a9;
      }

      .cls-44 {
        fill: #d98576;
      }

      .cls-45 {
        fill: #f18888;
      }

      .cls-46 {
        fill: #cedaf1;
      }

      .cls-47 {
        fill: #ccd9f1;
      }

      .cls-48 {
        fill: #8d8bac;
      }

      .cls-49 {
        fill: #d97373;
      }

      .cls-50 {
        fill: #b86573;
      }

      .cls-51 {
        fill: #d13e5b;
      }

      .cls-52 {
        fill: #fff;
      }

      .cls-53 {
        fill: #f5dcda;
      }

      .cls-54 {
        fill: #cc786e;
      }

      .cls-55 {
        fill: #ea6164;
      }

      .cls-56 {
        fill: #efefef;
      }

      .cls-57 {
        fill: #89a8d9;
      }

      .cls-58 {
        fill: #e5907c;
      }

      .cls-59 {
        fill: #f2a6a6;
      }

      .cls-60 {
        fill: #d3a07d;
      }

      .cls-61 {
        fill: #e27666;
      }

      .cls-62 {
        fill: #867667;
      }
    </style>
    <linearGradient id="Dégradé_sans_nom" data-name="Dégradé sans nom" x1="-2092.4" y1="-935.9" x2="-2093.5" y2="-1004.2" gradientTransform="translate(2128.6 1117.3)" gradientUnits="userSpaceOnUse">
      <stop offset="0" stop-color="#d4e5df"/>
      <stop offset=".5" stop-color="#fff"/>
      <stop offset="1" stop-color="#d4e5df"/>
    </linearGradient>
    <linearGradient id="Dégradé_sans_nom_2" data-name="Dégradé sans nom 2" x1="-2083.4" y1="-969.5" x2="-2068.8" y2="-969.4" gradientTransform="translate(2128.6 1117.3)" gradientUnits="userSpaceOnUse">
      <stop offset="0" stop-color="#343434"/>
      <stop offset="1" stop-color="#8ca1aa"/>
    </linearGradient>
    <linearGradient id="Dégradé_sans_nom_3" data-name="Dégradé sans nom 3" x1="-1944.1" y1="-1105.2" x2="-1931.8" y2="-1107.9" gradientTransform="translate(2128.6 1117.3)" gradientUnits="userSpaceOnUse">
      <stop offset="0" stop-color="#e66e84"/>
      <stop offset=".2" stop-color="#f5a9a9"/>
      <stop offset=".5" stop-color="#edbcbc"/>
      <stop offset="1" stop-color="#fff"/>
    </linearGradient>
    <linearGradient id="Dégradé_sans_nom_4" data-name="Dégradé sans nom 4" x1="-1951.8" y1="-834.1" x2="-1930.7" y2="-830.5" gradientTransform="translate(2128.6 1117.3)" gradientUnits="userSpaceOnUse">
      <stop offset="0" stop-color="#e49292"/>
      <stop offset=".2" stop-color="#e7a0a0"/>
      <stop offset=".5" stop-color="#edbcbc"/>
      <stop offset="1" stop-color="#fff"/>
    </linearGradient>
    <linearGradient id="Dégradé_sans_nom_5" data-name="Dégradé sans nom 5" x1="-1955" y1="-830.2" x2="-1931.4" y2="-826.3" gradientTransform="translate(2128.6 1117.3)" gradientUnits="userSpaceOnUse">
      <stop offset="0" stop-color="#e57e7e"/>
      <stop offset=".2" stop-color="#e7a0a0"/>
      <stop offset=".5" stop-color="#edbcbc"/>
      <stop offset="1" stop-color="#fff"/>
    </linearGradient>
  </defs>
  <path class="cls-53" d="M83.8,232.1s15.9-55.3,16.1-89.6c.2-34.3-19.3-78-19.3-78,0,0,14.8-20.8,53.4-24.2s64,8.3,78.6,17.1c14.7,8.8,34.8,36.3,41.5,50.3s7.3,48.1,5.2,56.7c-2.1,8.6,3.8,10.2-2.2,24.7-22.5,54.6-58.3,64.6-70,69.3-10.2,5.4-34.5,7.7-56.4,4.2-9-1.4-28.6-8.4-34.9-11.9-8.4-3.8-11-10.7-11.9-18.5h0Z"/>
  <path class="cls-53" d="M147.8,39.6c-4.4,0-9,.2-13.9.6-38.6,3.4-53.4,24.2-53.4,24.2,0,0,3.1,7.1,6.9,17.7,1.6,0,3.2,0,4.5-.2.1-.5.5-1.2,1.1-1.8,0-.2,0-.4-.2-.6,2.9-3,5.1-7.1,8.7-9.4,1.3-.8,3.1-.5,4.5-1.3,1.4-.8,2.6-1.9,4.1-2.7,1.2-.6,2.5-.8,3.6-1.5,1-.6,1.7-1.6,2.7-2.2,1.5-.8,4.5-1.2,6.2-1.7,1.5-.4,3-.8,4.5-1.3,1.4-.5,2.8-1.3,4.2-1.7,2.2-.5,4.4-.4,6.6-.8,2.2-.4,4.2-1.3,6.4-1.9,2.2-.5,4.6-.4,6.9-.4s4.4.2,6.6,0c1.3,0,2.6-.4,4-.3,2.1.2,3.9,1,6,1.1.3,0,1.2,0,2,.3,8.3.7,16.6,2.4,24.7,5.2,3.4,1.2,7.2,2.1,10.4,3.7,6.8,3.5,14,7.6,19.9,12.3,4.6,3.7,8.5,8.3,13.6,11.3,2.1,1.2,4.1,4,4.9,2-9-13-21.2-27.1-31-33-12.8-7.7-33.8-17.6-64.8-17.7h0Z"/>
  <path class="cls-14" d="M147.8,39.6c-4.4,0-9,.2-13.9.6-38.6,3.4-53.4,24.2-53.4,24.2,0,0,.7,1.6,1,2.3,1.4,1.8,3.3,3.1,5.4,3.9,0,0,.4-.6,1-1.5.5,0,1,.2,1.4.6,0-1.2,2.5-4.6,4.9-5.8,1.6-.8,3.1-1.2,4.5-2.3,2-1.6,3.4-3.8,5.6-5.3,1.2-.7,2.6-1.1,3.8-1.8.9-.5,1.7-1.4,2.7-1.8,1.4-.6,2.9-.5,4.3-1.1,1.7-.7,2.8-2.1,4.6-2.8,2.5-1,5-1,7.6-1.4,2-.3,3.8-1.5,5.8-2,4-.9,8,0,11.9-.7,2.8-.5,5.6-.6,8.4-.8,17.2,1,33.4,5.6,42.4,9.4,14.8,6.3,21.2,12.5,22.5,11.6.4-.3-1.4-3.3-4.9-7.4-.3-.2-.5-.3-.8-.5-12.8-7.7-33.8-17.6-64.8-17.7h0Z"/>
  <path class="cls-27" d="M166.1,85.9c-4.6,0-9.2.7-12.8,3-3.4,2.1-5.3,5.6-9.2,7.3-2.8,1.3-6.2,1-8.9,2.8-4.1,2.7-7.2,8.2-10.9,12.1-.3.8-.8,1.6-1.2,2.3-.5.8-1.9,1.2-2.2,2.1-.3,1,0,2.2-.2,3.3-.4,1.6-1.7,3.5-3.2,4.8-.3,5.6-6.2,10.6-5.5,18.2.5,4.7,6,7.7,7.3,12.4,1.2,4.4-1.6,4.2-2.1,5.8-.6,1.9.1,5.3.5,7.1,1.2,5.2,5.2,12,9.4,15.4,1.8,1.4,4.2,1.7,5.9,3.3,1.8,1.6-.7,4.6,1,7,1.4,2,5.2,5.5,7.6,6.2,1.2.4,2,0,3.2.8,2.4,1.7,3.8,4,6.4,5.6,5.2,3.2,18.4,5.9,24.4,4,3.6-1.1,6.4-4.7,10.2-5.5,1.4-.3,2.8.9,4.3.9.9,0,11.5-3,12.2-3.4,6.7-3.5,10.4-10.2,14.5-16,4.1-5.8,4.2.3,7.2-5,2.3-3.9,1.8-9.1,3.1-13.4,1.4-4.6,5.3-8.5,6.3-13.2.7-3.6-2.8-6.7-3.1-10.2-.3-2.9,1.7-4.3,1.1-7.5-.2-1.4-1.3-7-2.8-7.3-.9-.2-1.5.5-2.2-.4-1-1.4-1.2-3.5-1.9-5-1.1-2.4-2.6-4.6-3.9-6.8-2.1-3.7-.7-7.1-3.9-10.6-2.9-3.1-5.9-3.2-9.4-4.9-4.1-2.1-6.7-5.6-11.3-7-2.4-.8-5.3-.5-7.6-1.4-1.9-.8-3.5-2.3-5.5-3-4.9-1.8-11.1-3.4-17-3.5h0Z"/>
  <path class="cls-8" d="M165.1,125.8c-2.5,0-5.2.6-7.9,1.6-9.8,3.7-18.8,12.4-21.4,22.8-.8,3.1.8,7.3,1.7,10.2,1.2,4,2.7,8.6,5,12.2,2.9,4.5,8.8,7.5,14.4,8.8.9-.2,2.1.3,3,.1.7-.1,1.2-.5,2-.5,1.7,0,3.1.8,4.8.7,2.5-.1,1.8-.9,3.8-1.4.9-.2,1.6.2,2.5.1,1.2,0,2.6-.8,3.7-1.3.6-.3.8-.9,1.4-1.2,1.5-.7,3.4-.9,4.7-1.9.4-.3-.2-.9.1-1.2.3-.3.6-.4,1-.5,1-.6,1.8-1.8,2.2-2.9.4-1.2-.9-1.4-.4-2.7.1-.3.3-.6.5-.9.8-1.3,0,1,.9.7.9-.3,1.5-2.8,1.8-3.7.5-1.6-.2-2.9.1-4.3.2-.8,1-1.4,1.1-2.3,0-.8-.6-1.6-.6-2.3,0-.6.5-1.1.6-1.8.1-.6.5-3.1.4-3.7,0-.9-.8-1.3-1.1-2-.4-1.1-.2-2.3-.5-3.3-.1-.7-.7-1-.9-1.5-.2-.5-.2-1.1-.4-1.6-.5-1.1-1.6,0-2-1-.7-1.5-.5-3-1-4.6-.2-.6-.5-1.2-.8-1.7-1.4-1.6-3-3.1-4.7-4.3-1.1,1-1.2-.4-2.9-1.3-.9-.5-2.1,0-2.9-.4-.7-.4-1.1-1.4-1.8-2-2-.6-4.1-.8-6.3-.8h0Z"/>
  <path class="cls-52" d="M170,170.9c-2.9,0-6.7-1.4-8.4-3.9-1-1.5-1.5-3.4-2.1-5-.4-1.2-1-2.9-.7-4.2,1.1-4.3,4.8-7.9,8.8-9.4,7.1-2.7,13.2,3.2,14,10,.2,1.4-.2,2.8-.4,4.2-1.3,6.7-5.4,8.4-11.3,8.3h0Z"/>
  <path class="cls-53" d="M244.9,96.4s1.3,3.9,2.4,10.4c1.3,2.9,2.2,6,2.4,9,.1,1.8-.3,3.7-.1,5.5.1,1.4.6,2.7.8,4.1.1,1.7,0,3.4,0,5.1,0,2.4,1.2,4.5.8,7-.3,1.7-1.1,3.4-1.5,5.1-.8,2.9-.8,6.1-1.7,9-.6,1.9-1.5,3.7-2.2,5.6-.8,2.2-1.1,4.6-1.8,6.8-1.4,4.4-5.2,11.9-8.4,15.2-3.1,1-2.7,3.9-4.2,6.1-.6.8-3.9,3-7,4.8-3.9,3.7-7.5,6.2-10,7.7-1,.6-1.6,1.1-2.1,1.8,7.6-1.9,14.7-3.8,19.6-5.8,14.5-5.9,25.4-20.8,27.5-29.4,2.1-8.6,1.5-42.7-5.2-56.7-1.4-2.9-3.4-6.4-5.8-10.1-1.1-.7-2.2-1.1-3.4-1.1h0Z"/>
  <path class="cls-38" d="M254.1,120c1.5,7.6,1.8,16.1.8,24.6,0,.7,0,1.3-.1,1.8-.3,2.4-.3,5.1-.8,7.9-.5,2.7-1.3,6.4-2.9,9.5-1.6,3.1-2,5.9-3.3,9.1-1.3,3.2-4.9,6.1-7.1,9.4s-9.7,10.2-9.7,10.2c0-.2-.1-.4-.2-.7-1,1.2-1.7,2.2-1.6,2.3,1.9,3.6,16.7-6.6,18.5-8.4,5.6-5.9,10.9-14.2,13-22.1,3-10.9,2.5-35.1-6.6-43.5h0Z"/>
  <path class="cls-16" d="M211.5,129.6c-4.9-4.3-10.6-9-16-7.7s-8,8-11.3,11c-3.3,3,6.6,17,8.6,22.6s11,6.6,16.6,4.3,10.6-22.6,2-30.3h0Z"/>
  <path class="cls-16" d="M209.8,131.3c-4.2-3.7-9.1-7.7-13.7-6.6-4.6,1.1-6.8,6.8-9.7,9.4s5.7,14.5,7.4,19.4,9.4,5.7,14.2,3.7,9.1-19.4,1.7-25.9h0Z"/>
  <path class="cls-16" d="M207.5,133.7c-3.2-2.8-6.9-5.9-10.4-5s-5.2,5.2-7.4,7.2,4.3,11.1,5.6,14.8,7.2,4.3,10.9,2.8c3.7-1.5,6.9-14.8,1.3-19.8h0Z"/>
  <path class="cls-4" d="M205.2,136c-2.2-2-4.9-4.1-7.3-3.5s-3.7,3.7-5.2,5,3.1,7.8,4,10.4,5,3.1,7.6,2,4.9-10.4.9-13.9Z"/>
  <path class="cls-24" d="M203.4,137.8c-1.5-1.3-3.3-2.8-4.9-2.3s-2.4,2.4-3.5,3.4,2,5.2,2.6,6.9c.6,1.7,3.4,2,5.1,1.3s3.3-6.9.6-9.3h0Z"/>
  <ellipse class="cls-5" cx="150.7" cy="150.7" rx="113.1" ry="113.7"/>
  <path class="cls-56" d="M276,180.2c5.3-1.9,20.5,3.4,29.1,3.4,8.5,0,13.6,1.1,20.9,1.4,7.3.3,19.7-2.6,19.8-2.8s0-5.2,0-5.2c-1-1.1-12-3.6-23.2-3.6-11.2,0-56.1-6.9-60.1.7-4,7.5-1.9,15.5-15.4,35.8-26.1,34.8-56,44.1-88.6,48.2-32.6,4.2-57.8-8.3-76-21.4-18.2-13.2-27.1-35.8-27.1-35.8,0,0-1.8-1.6-3.3-1.6s-1.7,1.7-3.5,2.6-4.1.5-3.8,1.4,3.1,3.4,4.6,5.6c1.5,2.2,8.2,11.7,8.2,11.7l7.8,8.9s5.9,6.4,14.7,13.4c8.8,6.9,23.8,14.3,23.8,14.3,0,0,16.3,7.5,35.7,9.6,19.4,2.1,34-1.1,43.6-2.9s26.6-10.1,36.3-16.6,19.5-16.6,27.3-25.2c7.7-8.6,14.2-18.2,17-29.9.9-3.8,3.2-11.2,12.3-11.9h0Z"/>
  <path class="cls-50" d="M53.3,165s4.1,10.8,7.5,14.6c3.3,3.8,10.8,6.7,10.8,6.7,0,0-3.9,13.6-4.9,15.7s-10.6-9.2-12.3-13-1.8-21.1-1-24h0Z"/>
  <path class="cls-50" d="M53.5,133s4.5-14,9.3-18.7c4.8-4.7,10.6-3.1,10.3-4.8-.3-1.8-3.2-16.2-6.7-17.8-3.6-1.6-10,8.8-11.6,13.7s-3,22.5-1.3,27.6h0Z"/>
  <path class="cls-34" d="M79.8,230.9s-3.1-1.6-4.4-2.6c-1.3-1-2.9-3.1-4.9-4.7-2-1.6-4.3-2.1-4.3-2.1,0,0-6.1-7.9-7.7-11.6-1.6-3.7-4.2-12.6-4.2-12.6,0,0-2.2-6.9-3-15.2-.8-8.3-.4-12.9-.4-12.9,0,0,.8-5.1,1-5.9.2-.9,1.4-2.2,1.4-2.2l1,5.5s-.4,5-.4,8.4c0,3.4.8,8,1,9.4.2,1.3,1.3,5.9,1.7,6.1.4.3.8-7.9.8-7.9l.3-5.2.8,1.6s.2,5.7.4,7.6,1,5.4,1.3,5.6c.4.3.6-6.4.6-6.4l.2-2.8.6,1.1v6.6c0,0-.2,5.5.4,5.6.6,0,.8-3.5.8-3.5v-7.3l1.1.8s.1,4.4.6,4.3c.5-.2,1-3.5,1-3.5l.8.7-.3,4.1s-1.1,7.7-.2,8,1.1-3.1,1.1-3.1l1.1-5,.7-3.5,3.8-1.3s-1.1,9.9-1.2,17.9c-.1,8,1.6,14.7,3.2,17.5s4.5,6.5,4.9,8.7h0Z"/>
  <path class="cls-15" d="M53.9,200.6s-9.9-13-10.9-44.2,11.2-61.5,11.2-61.5c0,0-19.6,5.9-28.4,25.2-8.8,19.3-7.6,40-1.4,54.4,6.2,14.4,23.2,26.9,29.4,26Z"/>
  <path class="cls-31" d="M52.8,161.4s-2.9,5.9-2.3,15.5c.6,9.6,2.1,15.3,2.1,15.3,0,0,2.4,6.3,2.2,7.6-.2,1.2-10.7-10.6-13-24.1s-5.8-26.6-3-41.1,5.7-22.3,6.9-25.8c1.2-3.5,5.9-10.3,5.9-10.3,0,0,2.8-3,3.2-2.2.3.7-3.4,10.4-4.3,18.9-.9,8.4-.1,12.1.3,14.3.4,2.2,2.8,5,2.8,5l-.9,11.7.4,10.1s0,5-.4,5.3Z"/>
  <path class="cls-23" d="M46.3,121s0,0-.1,0c-1.9,1-.2,9.1.5,12.5-.2-.3-.3-.5-.5-.8-.5-.9-1-4-1.9-4.3-1.4-.5-.7,2.7-.7,3.2.1.9.6,1.9.4,2.8-.2,1.3-1.4,1.1-1.2,3.2,0,.2,0,.3.1.5-1.1.3-2.3.6-2.6,1.7-.2.6,2,.9,1.8,2.1,0,.4-.8.6-.9,1.1-.2.9,1.1,2.1.5,3.6-.5,1.1-1.7,1.8-1.6,3.1.1,1.1,1.3,0,1.6.9.4,1.4-1.1,3-1,4.5,0,.8,1.3.5,1.3,1.3,0,2-1,4.2-.3,6.1.4,1.1,2.1-.3,2.9,1.8,0,.2.2.6.2,1,0,.6-.2,1.3-.2,1.9-.1,1.5-.3,8.1.9,3.2,0-.2.1-.4.2-.6,0,1.6,0,3.1.3,4.1,0,.2,1.7,7.6,2.6,6.3.2-.4-.7-5.4-.7-6.3,0-1.4,0-2.8.2-4.1,0-.1,0-.3,0-.5.4-1.4,1.6-7.9,3.3-5.1,2.5-5,.9-10.9,1.2-16.4.2-2.9,1-5.8,1.1-8.7,0-2,.8-4.6-1.7-4.7-3,0-4.5-6.8-5.2-10.7,0-.2-.4-2.7-1-2.7h0Z"/>
  <path class="cls-56" d="M345.8,150.5s0-5.1,0-5.2-12.5-.7-19.8-.4c-7.3.3-12.1,1.5-20.7,1.5-8.5,0-20.3-1.3-25.7-3.3-5.3-1.9-6.4-2.5-7.6-5.2s-2.1-17.4-6.4-28.6c-4.3-11.2-11.2-26.7-19-35.3s-17.6-18.8-27.3-25.2c-9.6-6.5-26.7-14.8-36.3-16.6-9.6-1.8-24.2-5.1-43.6-2.9-19.3,2.1-35.7,9.6-35.7,9.6,0,0-15,7.4-23.8,14.3-8.8,6.9-14.7,13.4-14.7,13.4l-7.8,8.9s-6.7,9.5-8.2,11.7c-1.5,2.2-4.2,4.8-4.6,5.6-.4.9,1.9.5,3.8,1.4s2.1,2.6,3.5,2.6c1.4,0,3.3-1.6,3.3-1.6,0,0,9-22.6,27.1-35.8s43.4-25.6,76-21.4c32.6,4.2,73.1,34.2,86.6,54.5,13.5,20.4,15.9,45.5,19.9,53.1,4,7.5,46.3,8.6,57.5,8.5,11.2,0,22.2-2.5,23.2-3.6h0Z"/>
  <path class="cls-1" d="M247.5,179.2c3-4.6,6.2-12.3,6.9-14.7s2-9.9,2-9.9c0,0,.8-12.2.3-18.1s-2.6-17.2-5.4-24.2c-2.8-7-7.1-17.7-12.2-24.3-5.1-6.6-15.4-18.8-23.3-24.3-7.9-5.4-17.4-11.5-27.7-14.8-10.3-3.3-25-6.6-35.2-7.1s-17.9,0-17.9,0l-10.2,1-10.1,1.7s6.4-5.5,29.4-7.5c23-2.1,44.7,4.2,59.5,12.2,14.9,8,36.5,26.7,44.7,40.4,8.2,13.7,11.5,27,12.7,31.1s1.5,18.2,5.9,22.5,9.2,5.8,15,6.7c5.8.8,14.6,1.6,14.6,1.6,0,0,16.7-.5,21.2-.8s12.9-.6,12.9-.6h9.6s5.7.4,5.7.4c0,0,.6,10.2.7,15.5s-.3,10.9-.3,10.9c0,0-21,2.8-31.5,1.8-10.5-1-23.6-3.8-27.4-4.7-3.8-.8-10.6-1.5-15.9.3-5.3,1.8-6.3,7.3-11.4,10.9,0,0-20.6,38.7-30.8,48s-57.6,28.5-57.6,28.5l-34.2,3.1-49.1-23.4s33.8,17.5,70.5,11.8,70.2-29.1,88.6-74.1"/>
  <path class="cls-28" d="M255.8,105.4c-1.6.6-2.5,1.6-2.2,2.9,2.3,3.7,3.2,13,4.3,19.2.5,2.4,1.6,4.7,1.9,7.1.7,5.2.8,9.4,4,13.9.7,1,1.5,2.3,2.6,3.1,3.9,2.8,11.5,3,16,3.3,2.7.2,5.4.9,8.1,1.1,4,.2,7.8-.9,11.7-.9s8.9.8,13.3.7c6.3,0,10.8-1.5,17.2-.1,2.2.5,9.2,2,13.3,1.3-.2-3.5-.4-6.4-.4-6.4l-5.7-.4h-9.6s-8.4.3-12.9.6c-4.5.3-21.2.8-21.2.8,0,0-8.9-.8-14.6-1.6-5.8-.8-10.6-2.4-15-6.7s-4.7-18.4-5.9-22.5c-.7-2.5-2.2-8.3-5.1-15.4h0Z"/>
  <path class="cls-39" d="M152.4,36.6c-2.8,0-5.7.1-8.6.4-1,0-1.8.2-2.7.3-.2.4-.4.9-.5,1.3,0,0,21.3-1,39.3,4.4s32.6,13.7,42.9,22.3c10.2,8.6,19.7,22.1,22.6,26.9s4.7,8.4,5.9,11.5c1.3,3.1,2.4,6.3,3.8,9,1.4,2.6,3.1,6.3,3.4,9.8.3,3.5.7,6.4,1.7,10.4.9,3.9,1.4,8.4,3,11,1.6,2.6,5.8,4.9,5.8,4.9,2.9,2.7,6.3,2,9.8,2.4,2.3.2,4.4,1.7,6.8,1.9,3.2.2,6.4-.7,9.5-.6,2.3,0,4.5.8,6.8.9,2.2.2,4.3-.5,6.5-.5,2,0,4.1.6,6.2.5,3.3-.1,6.4-1.5,9.7-1.8,3.6-.2,7.1.9,10.7,1,3.7.1,7.4-.4,11.1-.5,0-.3,0-1.5,0-1.5l-5.7-.4h-9.6s-8.4.3-12.9.6c-4.5.3-21.2.8-21.2.8,0,0-8.9-.8-14.6-1.6-5.8-.8-10.6-2.4-15-6.7s-4.7-18.4-5.9-22.5c-1.2-4.1-4.5-17.4-12.7-31.1-8.2-13.7-29.8-32.4-44.7-40.5-13-7-31.2-12.7-51-12.6h0Z"/>
  <path class="cls-28" d="M252.4,197.5c1.4-3.1,1.8-13.8,6.7-17,5-3.2,10.5-4.4,17-5.1s16.6-1.2,16.6-1.2c0,0,19,.4,24,.6,5.1.2,14.6.4,14.6.4h10.9s6.5-.3,6.5-.3c0,0,.2-2.2.4-4.9-4.6-.5-12.6.6-15.1,1-7.3,1-12.4,0-19.5,0-5.1,0-10.1.6-15.1.6s-8.8-.8-13.3-.6c-3.1.1-6.1.7-9.2.8-5.2.3-13.8.4-18.2,2.5-1.2.6-2.1,1.5-2.9,2.3-3.7,3.4-3.7,6.5-4.5,10.5-.4,1.9-1.6,3.6-2.1,5.4-1.4,4.7-2.3,11.7-4.9,14.5-.3,1,.7,1.7,2.5,2.2,3.2-5.4,4.9-9.8,5.8-11.7h0Z"/>
  <path class="cls-39" d="M132.4,258.3c-3.2,0-6.4-.1-9.7-.3-1.1,0-5-4.2-6.1-4.2-.2-.3-.4-.6-.6-1,0,0,24.2,6.8,44.6,2.6,20.4-4.1,37-10.4,48.6-16.9s20.3-15.8,23.6-19.4c3.3-3.6,5.3-6.4,6.7-8.7,1.4-2.3,2.7-4.8,4.3-6.8s3.5-4.8,3.9-7.4.8-4.9,1.9-7.9c1.1-3,3.6-6.4,5.4-8.3,1.8-2,6.6-3.8,6.6-3.8,3.2-2,7-2.7,11-3,2.6-.2,5.1,0,7.8-.2,3.6-.2,7.2.5,10.8.5,2.6,0,5.1-.6,7.7-.7,2.5-.1,4.9.4,7.4.4,2.3,0,4.6-.4,7-.4,3.8.1,7.3,1.2,11,1.4,4.1.2,8-.7,12.1-.8,4.2,0,8.4.3,12.5.4,0,.2,1.1,4.9,1.1,4.9l-6.6.2-10.5.8s-9.8-.5-14.9-.8-23.1-2.6-23.1-2.6c0,0-12.7-1.1-19.2-.4s-7.8,1-12,6.5c-5,3.2-9.8,12.1-11.1,15.2-1.4,3.1-5.1,13.2-14.5,23.6-9.4,10.4-33.9,27.6-50.7,33.6-14.8,5.3-32.4,3.6-54.9,3.6h0Z"/>
  <path class="cls-35" d="M73.1,109.3s-4.3-11.6-3.1-22.2c1.3-10.6,4.6-15.3,6.4-17.5,1.8-2.2,5.9-6.3,5.9-6.3,0,0,2.2.2,3.1,1.2.8,1,1.2,3.7,1.2,3.7,0,0,2.3-.8,4,1.2,1.6,1.9,1.2,4.9,1.2,4.9,0,0,2.7.7,3.5,2.4s.7,4.4.7,4.4c0,0,3.3,1,4.3,4.6,1,3.6,0,7.9,0,7.9,0,0,5.2,2.1,6.1,5.9.9,3.9.7,7.6.7,7.6l-.9,3.8s4.3,2.2,5.2,6.6c.8,4.3,0,7.1,0,7.1l-2.6,4.1s3.7,2.1,4.1,7.8c.4,5.6-1,8.6-1,8.6l-2.9,2.9s3.8,3.6,4.1,8.5-1.2,8-1.2,8l-1.9,2.3-1.2.8s3.1,3.2,3.3,6.8-1.5,6.9-2.9,8.6-2.9,2.3-2.9,2.3c0,0,2.2,7,.2,11.8s-6.3,5.9-6.3,5.9c0,0,1.9,3.9.2,7.9s-4.1,4.5-4.1,4.5c0,0,0,2.9-1.2,4.7-1.2,1.8-3,2-3,2,0,0,0,3.3-1.3,4.8-1.3,1.5-3.7,1.4-3.7,1.4l-.8,2.5-1.6,1.7-5.9-5.7s-4.4-5.3-5.8-7.7-3.2-7.8-3.1-12.8c0-5,1.4-12,1.4-12l2-7.2s10.4-46.8.2-77.8h0Z"/>
  <path class="cls-44" d="M79.5,109.1l-1.3,3.3s3.9,16.9,4.4,34.8c.5,17.9-8,34-8,34,0,0,2.1,10.9,4.7,13.4,0,0-1-1.4-.8-2.4,0-.3.3,0,.2-.6,0-.3-.3-1.1,0-1.3.8-.7,2.6,1.3,3.4,1.4.7.1-.4-1.1-.5-1.1-.8-1.4-.7-1.5.1-2.5,0-.1.4,0,.4.1.2,0,.5,0,.8,0,.7.3,1.9,2.2,2.7,1,0-.1-.3-.4-.3-.5-.4-1.2-.7-2.6-1.1-3.9-.4-1.4,1.1-2.1.9-3.4,0-.4-.6-.8-.7-1.2-.4-1.1-.9-3-.6-4.1.2-.5.8-.2,1.1-.2s1.1-.3,1.4-.2c.2.1.3.5.5.6.4.2,1.1.1,1.6.2.6.2,1.1.7,1.7,1,.2.1,1.3.7,1.5.5.4-.5-1.2-1.4-1.3-1.8,0-.5,2.4,0,2.2-.4-.4-.9-1.7-1.3-2.2-2.1-.3-.4,0-1-.4-1.3-.2-.2-1.7-1.5-1.7-1.8,0-1.1,1.2-.8.9-1.7-.1-.4-.6-.6-.8-.9-1-1.2-2.1-3.5-1.5-5,.3-1,1.3-1.4,1.7-2.4.2-.6,0-1.6.3-2.1.4-.6,1,0,1.4-.3.4-.3,0-1.2,0-1.6,0-.2.2-.4.3-.7.3-1,1.6-1,2.2-1.9.3-.5,0-1.1.2-1.6.1-.3.5-.7.3-1.1-.3-.6-.8-.8-.9-1.5-.1-.8.4-1.4.2-2.2-.2-.9-1-1.4-1.5-2.2-.6-1-.6-2.3-1.1-3.4-.2-.5-.7-.5-1-1-.4-.6-1.3-2.4-1.3-3.1,0-.8.2-1.9.5-2.6.6-1.2,2.6-2.2,1.1-3.9,0-.2,0-.5,0-.7,0-.4-.6-.6-.7-1-.2-.8.2-1.8,0-2.6-.4-1-.9-1.4-.9-2.6,0-.8.9-1.5.7-2.4-.2-.8-1.2-1.4-1-2.3.2-.6,1.7-2.2,1-2.9-.4-.5-2.9,0-3.6-.7-1-.9-.4-2.8-.9-3.4-.7-.9-2,.6-2.2-1.1-1.8,0-.8-1.4-1.3-2.3-.1-.2-.5-.3-.7-.4h0Z"/>
  <path class="cls-44" d="M77.1,183c.2,4,.8,8,2.4,11.7.2.6.7,1,.9,1.6.2.7.2,1.4.4,2.1.3.9.9,1.6,1.2,2.5.4,1.2.1,2.4.5,3.6.6,1.7,1.8,3.2,2.7,4.8.7,1.2,1.2,2.7,2,3.9,1.5,2.3,5.7,5.6,6.4,8l-1.8.9-.5,3.1s-6.2-5.4-9-9.5c-2.8-4.1-8.3-22.1-8.4-24.1-.1-2.1.8-5.7.8-5.7,0,0,2-1.4,2.4-2.7h0Z"/>
  <path class="cls-44" d="M78.2,113.9c1.6-2.8,2-6.3,4.3-8.8,0-.1,0-.3,0-.5.3-.9.8-1.7,1.2-2.6.4-.9.6-2,1.2-2.9.5-.8,1.4-1.6,1.5-2.5,0-1.1-.2-2.2.3-3.3.2-.5.9-1.2.9-1.7,0-.6-.2-1.2,0-1.8.3-.7,1-1.2,1.2-1.9.5-1.5.6-3,1.4-4.3.8-1.2,5.3-4.2,5.3-5.3s-1.7-4.1-3.1-3.5c-1.9.8-3.5,2.9-4.7,4.4-1.8,2.3-3.7,4.8-5,7.5-2.6,5-3.7,10.9-4.8,16.4,0,.4-1.6,8.2-1.5,8.5.2.8,1.2,1.5,1.8,2.2h0Z"/>
  <path class="cls-10" d="M73.9,182.2c-.5,2.8-.9,4.9-.9,4.9l-2,7.2s-1.4,7.1-1.4,12c0,5,1.7,10.4,3.1,12.8s5.8,7.7,5.8,7.7l5.9,5.7,1.6-1.7.8-2.5s2.3.2,3.7-1.4c.5-.6.8-1.5,1-2.4-.3-.2-.5-.4-.7-.7-2.8-3.4-5.9-6.8-8.2-10.5-.9-1.5,1-.7,1-.7-1.4-2.4-2.9-4.4-3.9-6.9-.4-1.1-1.3-2.7-1.1-3.9,0-.2,1,1.2.7-.5,0-.6-.6-1.4-.4-1.9.1-.3.6.3.9.3.4,0-.6-.6-.8-1-.5-1-.9-1.9-1.4-2.9-1.8-4.1-2.2-8.7-2.4-13.1-.4-.2-.8-.3-1.2-.4h0Z"/>
  <path class="cls-10" d="M78.1,191.7c-.6-1.5-.8-3.5-.4-5.1.2-.6.6.3.9.2.4-.1.6-1.1.9-1.1.3,0,1,1.1,1.8.9,1.3-.3-.5-1.3-.7-1.6-.3-.5-.2-1.4-.2-2s.3,0,.5-.2c.2-.2-.1-1.4.3-1.3.7,0,1.6,2.1,2,1.3.3-.6-.2-1.4-.2-1.5,1.7-.8,0-1.1,0-2.6,0-.8.6-.8.7-1.4,0-.6-.5-1.3,0-1.8.2-.2,1.5-.2,1.8,0,.2.2.2.6.4.7.3.3.7.1,1.1.2.3.1.8.8,1.7,1.1.4.1.8.3,1.2.4.4.2.9.2.9.2-.9-1.3-2.6-1.8-3.4-3.1,0-.2,1.6,0,1.6,0,0,0-.3-.4-.4-.5-.2-.3.4-.6.3-.9,0-.4-.9-.7-1.2-1.1-.4-.6.2-1.5-.2-2.1-.1-.2-.4-.2-.6-.4,0,0,.3-.2.4-.2.2,0,.3-.2.4-.4,0,0,0-.2,0-.2.3,0,.6,0,.9,0,.1,0,.2-.2.2-.4-.2-.4-.8-.7-.9-1.1,0-.2.2-.4,0-.6,0-.4-.6-.4-.7-.9,0-.3.6-.5.3-.8-.3-.4-.6-.6-.7-1.1-.2-1.4,0-2,1.5-1.6.3,0,.4.6.7.7.4.1.9-.2,1.3,0,.5,0,2,1.1,2.4.4.2-.3-.9-.7-.9-1-.2-.2-.4-.5-.6-.8-.2-.2-.4-.3-.5-.5-.2-.3.1-.6-.2-1.1-.6-.8-1.7-1.6-2.1-2.5-.1-.3.6-.9.4-1.1,0-.1-.2-.1-.2-.2-.2-.6,1.2-.7,1.2-1.3,0-.7-.8-1.2-1.1-1.8-.4-.6,0-1.2,0-1.8,0-.5-1.2-1.1-.5-2,.2-.2,1.1-.8,1.4-1,.2-.1.4.1.6.1.5-.1.8-.6,1.3-.8,0,0,.6-.1.6-.3-.2-.7-1.4,0-1.8-.8-.3-.4,0-1-.2-1.4-.5-1.4-1.7-.7-1.4-2.7-.3-.3-.9-.7-1-1.2,0-.6.3-.3.4-.9,0-.3-1-1.4-.6-2.6,0-.1.4-.5.3-.7-.1-.4-.8-.3-.6-1,.1-.4,2.3-1.9,2.2-2.2-.4-.7-1.6.7-2-.1,0-.1,0-.8,0-.9-.2-.5-.6,0-.4-.7,0-.1.6-1.1.5-1.2-.2-.4-.6-.8-.8-1.2-.2-.3-.1-1-.3-1.3-.4-.6-.3.4-.6-.4-.2-.6,0-3.1.3-3.7,0-.2.3-.3.3-.5,0-.3-.4-.3-.4-.5-.1-.2-.3-2-.1-2.3.1-.3.3-.4.5-.6-1.2,0-1,.4-1.8-.3-1.1-1-.7-.3-1-1.9,0-.1-1.3-.7-1.5-.9-.4-.6-.2-2.4-.2-2.4,0,0-.6,0-.7,0-.9-.3-.2-1.2-.3-1.7,0-.3-.5.3-.7.2-.2,0-.4-.4-.6-.5-.2-.1-.7-.2-.9-.8-.2-.6-.6-.5-.6-.9-.2-.8,0-1.9-.4-2.5l-3.1,4.9,5.6,44.2-6.4,24.1s.9,6.3,4,9.7h0Z"/>
  <path class="cls-10" d="M82.4,63.2s-4.2,4.1-5.9,6.3c-1.8,2.2-5.1,6.9-6.4,17.5-1.3,10.6,3.1,22.2,3.1,22.2.5,1.6,1,3.2,1.4,4.8,1.1-.2,2.2-.7,3.4-1.4,1.2-5.5,4.3-10.2,6.5-15.3,1.6-3.6-2.1,3.1-.5-1.6.3-.9.6-1.8.9-2.7,0,0,.2-.3,0-.3-1.3.5-1.7,2.8-3.1,3.4.6-.9,1.1-2.2,1.5-3.1.9-2.3,2-4,3.4-6,1.5-2.1-1.8.8-1.4-.1,1.2-2.6,4.1-5,6-7,.7-.7-.9-.3-.4-1,1-1.3,2.6-2.2,3.7-3.2-1.1-1.1-2.9-1.6-2.9-1.6,0,0,.4-3-1.2-4.9s-4-1.2-4-1.2c0,0-.3-2.7-1.2-3.7-.8-1-3.1-1.2-3.1-1.2h0Z"/>
  <path class="cls-42" d="M68.7,107.9c-2.6,0-8.9,4.2-12,13.2-3.2,9-4.1,24.2-4,31.7.2,7.6,2.3,20,6,26.5s5.6,8.4,10.1,8.4c4.5,0,9.3-3.3,13.6-14.9,4.2-11.6,4.1-25.2,3.6-33-.6-7.8-2.5-18.1-6.3-23.6-3.7-5.4-8.4-8.1-11-8.3h0Z"/>
  <path class="cls-13" d="M55.1,97.4s4.5-8.3,12.2-18.3c7.7-10,16.1-17.1,19.6-20s14.5-10.3,26.3-14.5,24.7-5.7,31.7-6.2c7-.5,25,0,40.8,5.3,15.9,5.4,27.1,12.8,27.1,12.8,0,0,15,10.8,23.4,20.4,8.4,9.6,13.1,18.7,13.1,18.7,0,0,4.6,8.8,6.8,14.1,2.2,5.3,4.4,13.6,5.4,17.9,1,4.3,1.3,11,3.9,15.2,2.6,4.2,7.3,5.6,7.3,5.6l2.6.5s-7.6-3.3-9.1-8.7c-1.5-5.4-2.5-17.3-4.5-23.5s-7.8-20.6-12.9-28.8c-5-8.2-16.1-21.2-21.9-25.6s-11.1-9.3-21.4-14.7c-10.2-5.4-23.7-9.9-34.1-11.5-10.4-1.6-27.4-2.5-39,0s-21.6,5-31.2,10-16.4,9.9-20.6,13.6-11.9,10.9-17.2,18.1-6.7,12.1-6.7,12.1l-1.9,5.6s-.3,1.3,0,1.9h0Z"/>
  <path class="cls-60" d="M244.4,183s8.3-5,12.5-13.8c4.2-8.8,2.8-21.1,2-24.7-.7-3.6-2-7.8-2-7.8,0,0,.7,18.1-2.1,26.5-2.8,8.4-6,14.3-6,14.3,0,0-2.6,3.3-4.4,5.5h0Z"/>
  <path class="cls-40" d="M250.9,174.2s3.9-4.8,5.3-9.6c1.4-4.8,1.8-10.7,1.7-12.8s-.8-6.9-.8-6.9c0,0-1.4,14-1.8,16-.4,2-2.9,8.9-2.9,8.9,0,0-.8,3.5-1.5,4.4h0Z"/>
  <path class="cls-9" d="M259.3,136.7c.5,2.5,1.7,4.8,2.8,7.1,2.2,4.3,6.5,7.2,11,8.8,5.7,2,11.8,3,17.8,3.5,11.3.9,22.5-1,33.7-1.7,6-.3,12.1-.7,18.1-.4-.5-.9-2.9-.4-4.2-.6-11.3-.3-22.5.9-33.7,1.9-7.3.6-14.8.9-21.9-.6-4.6-1-9.2-1.8-13.4-3.9-3.9-2-6.6-5.6-8.4-9.5-1-2.2-1.8-4.5-2-6.9-.2.6,0,1.8.1,2.5h0ZM260.6,137.3c-.3,1.3.6,3.4,1.3,4.9,1.9,3.7,5.2,6.4,9,8.2,6.6,3.1,13.9,3.9,21.1,4.6,3.8.4,7.7-.1,11.5-.5,7.5-.7,15-1.5,22.6-1.8,6.6-.2,13.3-.2,19.9,0-1.6-.4-3.8-.4-5.6-.5-7.4-.1-14.7,0-22.1.6-6.5.5-12.9,1.3-19.4,1.8-6.1.4-12.2-.2-18.2-1.4-4.7-.9-9.5-2.3-13.4-5.1-2.3-1.7-4.3-3.9-5.5-6.6-.6-1.4-1-2.7-1.3-4.1h0ZM260.3,147.1c.5,1.7,1.9,3.5,3.2,4.9,3.4,3.6,7.9,6.2,12.7,7.2,6.9,1.4,13.9.9,20.9.7,8.2-.2,16.3-1.3,24.5-1.6,5.9-.2,11.9-.4,17.7.4,1.8.3.4-.7-.7-.6-8.6-1-17.3-.7-26,0-10.3.9-20.7,1.5-31.1,1.2-3.9-.1-7.8-1.1-11.3-2.9-4.2-2.1-7.5-5.4-10-9.3h0ZM262.4,148.3c1,1.4,2.6,3,4.2,3.9,4.6,2.8,10,4.2,15.2,4.9,6.1.8,12.4.5,18.5.4,8.3-.2,16.6-.8,24.9-1.4,5.8-.4,11.6-1.1,17.3-.2.8.1,4,.3,1.9-.2-6.8-.9-13.6-.7-20.5-.1-8.6.7-17.2,1.1-25.8,1.5-7.8.4-15.8.4-23.4-1.8-4.1-1.2-8.2-3-11.4-6-.3-.3-.6-.6-1-.9h0ZM261.8,159.2c1,.7,2.6,1.1,3.9,1.6,6.8,2.4,14.1,3.3,21.3,3.4,7.6.1,15.2-.4,22.8-.3,7.2,0,14.4.6,21.5,1.3,5.2.5,10.5,1.4,15.7.7-1.6-.3-3.6,0-5.3-.1-8.2-.6-16.3-2-24.5-2.4-7.9-.4-15.8,0-23.7,0-9.2.1-18.5-.6-27.4-3.1-1.5-.4-2.9-.9-4.4-1.2h0ZM264.7,163.7c-2.4,0-4.9,0-7.3.6,1.4.2,3.1-.2,4.7-.2,6.9-.1,13.5,1.5,20.3,2.5,7.6,1.1,15.4,1.4,23.1,1.5,4.5.1,9,.4,13.4,0-1.6-.4-3.8-.3-5.6-.4-8.4-.2-16.8-.5-25.2-1.1-5.3-.4-10.5-1.7-15.8-2.3-2.6-.3-5.1-.6-7.7-.6h0ZM280.7,167.3c-6.6,0-13.3.9-19.9.9-.8,0-3.7.4-1.4.4,7.9-.3,15.8-.9,23.7-.6,7.9.4,15.7,1.7,23.6,2.6,7.4.8,14.8-.3,22.1-.4,4.8,0,9.5,0,14.2.7-1.4-.8-3.7-.8-5.5-.9-6-.4-11.9-.2-17.9.1-7.4.4-14.9,0-22.3-1.2-5.5-.8-11.1-1.6-16.7-1.6h0ZM277.4,169.8c-7.6,0-15.3,0-22.8,1.5,1.6,0,3.5-.3,5.2-.4,9.6-.8,19.3-.6,29,0,6.9.4,13.8,1.5,20.7,1.6,7.4.1,14.7-1,22.1-1.1,2.8,0,5.6,0,8.3.3-1.2-.8-3.9-.6-5.8-.6-6.6-.2-13.2.6-19.8.9-6.5.2-13-.5-19.5-1.1-5.9-.6-11.7-.9-17.6-1h0ZM345.8,170.9c-5.2.8-10.3,2-15.6,2.4-8.3.6-16.6.9-24.9.4-5.8-.4-11.5-1.2-17.2-1.8-6.4-.7-12.9-.9-19.3.2-5.5,1-11,2.5-15.9,5.3-1.6,1.2,2.4-1.1,3.1-1.2,8.2-3.4,17.3-5,26.2-4.4,6.4.5,12.7,1.2,19,2,5.9.7,11.9.5,17.9.6,7.5,0,15.2-.3,22.4-2.4,1.5-.4,3.3-.5,4.5-1h-.4,0ZM279.8,172c-4.8,0-9.6.6-14.2,2.1-4.8,1.6-9.7,3.5-13.4,7.1-1,1.4,1.6-1,2.2-1.4,3.5-2.6,7.8-4.2,12-5.5,3.7-1.2,7.5-1.6,11.3-1.9,4.5-.4,9,.8,13.4,1.6,7.7,1.3,15.4,2.9,23.2,3.2,7.8.3,15.7-.1,23.4-1.2,2.5-.4,5.1-.7,7.6-1.2-1.8,0-4,.2-5.9.5-8.3,1-16.6,1.9-25,1.4-8.6-.5-17.1-2.4-25.6-3.5-3-.4-6-1.1-9-1.1h0Z"/>
  <path class="cls-47" d="M25.3,125c-.6,0-1.1.2-1.6.5-6.4,17.7-4.9,36,.8,49.1,0,.1.1.2.2.4.5.1,1.1.2,1.7.2,2.9-.1,4.4-3.7,5.1-5.3,1.7-4,2.5-9.1,2.8-13.3.6-8.9.2-18.2-3.2-26.9-1.2-3.1-3.7-4.8-5.8-4.7Z"/>
  <path class="cls-7" d="M55.2,200.6s-1,1.3-3,2.9c-2,1.6-4.5,2.8-5,2.5s-10.2-11.6-14.8-15.8c-4.5-4.2-11-14.2-13.7-22.6-2.7-8.5-4.8-24.3-.2-37.9,4.6-13.6,12.2-21.7,15.2-25.4,2.9-3.7,9.3-9.2,9.3-9.2l1.8-2s1.1-1.8,2.2-2.8c1.1-1,3.2,0,4.9,1.5,1.7,1.4,2.7,3.7,2.7,3.7,0,0-11.5,6.8-15.6,11.1-4.1,4.3-10.6,12.8-13.5,20.1s-4.4,16.2-4,26.2,5,19.7,8.7,25.8c3.7,6,10.5,12.5,10.5,12.5,0,0,9.8,8.5,14.3,9.6h0Z"/>
  <path class="cls-21" d="M53.2,134.1s-6.1.2-7.5,8.1c-1.4,7.9.7,13.7,2.2,16.3,1.5,2.6,3.8,3,3.8,3h2.2s-1.3-9.3-1.1-14.7c.2-5.5.9-12.1.4-12.7h0Z"/>
  <path class="cls-34" d="M77.8,67.6s-4.7,3.3-7,5.8c-2.3,2.4-5.1,6.1-6.9,8.2s-4.2,3.6-5.3,4.7c-1,1.2-3.2,8.6-3.8,10.3-.7,1.7-3.7,13.2-4.2,20.1-.5,6.9.2,12.4.6,14,.5,1.6,2.2,3.2,2.2,3.2l.6-4.2s0-7.3.2-10c.2-2.7,1.7-11.4,2-11.6.3-.2.8,4.1.8,4.1l.5,6.2.7-1.5s-.3-5.8-.2-6.1,1.1,1.8,1.4,2-1-7.1-1.1-8.5.2-4.2.7-4.3,1.6,4,1.6,4l.8,6.4.3-1.1s0-2.7.4-2.9,1.3,3.7,1.3,3.7l.6-.7s-.8-5.1-.9-8.2-.2-5,.1-5.4,1.2,4.2,1.6,6,.6,6.7.6,6.7l.9-.2s-.2-3.7,0-6.1c.1-2.4.2-3.5.7-3.8.5-.2,1.5,1.8,2.2,3.7s1.1,4.3,1.1,4.3l1,2,1.4.4s-2.7-8.3-3.1-12.9.2-11.3,1.2-15.1c1.1-3.8,3.6-8.7,3.6-8.7,0,0,2.7-4.1,3.3-4.7h0Z"/>
  <path class="cls-6" d="M63.7,67.2s10.8-16.6,26.4-28.2c15.7-11.6,32-17.9,37.4-20.8,5.4-2.9,26.3-8,26.3-8l24.7-4.6s11.7-1.8,13.5-1.9c1.8-.1,1.9-.6,2.6-.4.6.2,1.8,2.7,3.1,6.3s1.8,6.2,1.6,6.6c-.1.4-16.4.4-29.3,2s-29.9,4.7-41.1,9-22.5,8.9-22.5,8.9l-11.4,6.7s-9.5,5.8-15.4,10.6-16.3,14.7-16,13.7h0Z"/>
  <path class="cls-51" d="M107,28.9c5-2.6,15-7.5,22.1-10.4,2.8-1.1,5.6-2.5,8.4-3.5,2.5-.9,5.1-1.3,7.6-2,6.6-2,13.6-3.3,20.4-4.3,4.5-.7,9.1-1.3,13.7-.7.6,0,1.8.2,1.9.9.2,1.6-4.3,1.8-5.3,2.1-.6.2-1.1.8-1.9,1-3.6.8-7.3.9-10.9,1.7-7.5,1.6-15,3.5-22.4,5.5-5.1,1.4-10.3,2.3-15.3,3.9-4.2,1.3-8.5,3.2-12.6,5-1.4.6-5.5,3.7-5.8.9h0Z"/>
  <path class="cls-33" d="M60.1,223.2s4.7,7.3,9.1,13.6c4.4,6.3,13.6,14.6,13.6,14.6,0,0,17.9,14.1,34.6,21.8,16.7,7.8,29,10.9,45.3,14.5,16.3,3.6,26.6,4.4,26.6,4.4,0,0,4.2.8,5.2.5s2.8-2.9,4.1-6.8c1.3-3.8,1.6-5.6.7-5.9-.9-.2-28.6-1.7-42.2-4.1-13.6-2.4-31.6-7.7-38-10.1-6.3-2.3-23.1-11.6-26.3-13.2s-14.6-11.1-14.6-11.1c0,0-16.6-14.8-18.3-18.3h0Z"/>
  <path class="cls-29" d="M78.8,247.3s0,0,0,0c2.3,2.3,4.2,4,4.2,4,0,0,17.9,14.1,34.6,21.8,16.7,7.8,29,10.9,45.3,14.5,16.3,3.6,26.6,4.4,26.6,4.4,0,0,4.2.8,5.2.5.8-.2,2-1.8,3.1-4.2-6.7-.6-29.5-3.1-48.8-8-22.7-5.8-43.7-15.1-50.2-19.6-6.5-4.4-17.7-13.4-20-13.5h0Z"/>
  <path class="cls-35" d="M209.9,168.8c.8-.4,1.6-.7,2.4-1.1l-2.4,1.1Z"/>
  <path class="cls-17" d="M85,64s6.3-7,15.9-12.1c9.6-5.2,22.3-7.5,29.3-8.4,7-.9,17.1-1.3,17.8-1.5.7-.2-17.6,0-24.2,1.1-6.6,1.1-15.2,3.3-15.2,3.3,0,0-10.4,4.2-15,7.5s-10.9,9.2-10.9,9.2c0,0,1.6.7,2.3.9Z"/>
  <path class="cls-3" d="M84.9,230.8s1.7,3.5,6.2,6.9c4.5,3.4,7.1,4,10.5,5.9,3.5,1.9,4.4,2,9.9,4.6,5.6,2.6,10.3,3.8,12.2,4.4s-7.2.3-13.4-1.8-19.8-10.4-19.8-10.4l-7.6-6.6s-.3-1.8,1.9-2.9h0Z"/>
  <path class="cls-46" d="M65,112.3c-5.7,4.7-9.2,18.9-10,28.6-.5,5.2-.4,10.9.3,16,.8,5.8,1.9,11.8,3.8,17.3,3.8,10.8,10.7,16.6,18.2,4.7,5.4-8.5,7.8-28.7,6.7-38.7-.4-3.2-1-6.3-1.7-9.4-1.1-5.5-3.5-11.1-6.2-15.5-2.7-4.2-6.3-6.8-11-3h0Z"/>
  <path class="cls-11" d="M69.5,125.1h-.3c-.8,0-1.6.4-2.5,1.1-3.5,2.9-5.6,11.5-6.1,17.4-.3,3.1-.3,6.6.2,9.7.5,3.5,1.2,7.2,2.3,10.5.8,2.2,1.8,4.1,2.9,5.3,1.2.6,2.7.9,4.1,0,2.1-1.3,3.5-7.8,3.8-10.2.1-1,0-3,.9-3.7,1.2-1.1.6,3.5.3,5.7-.6,3.9-1,4.4-3,7.5-.4.6-.8,1.2-1.2,1.8,1.1-.6,2.2-1.7,3.4-3.6,3.3-5.2,4.8-17.5,4.1-23.5-.2-1.9-.6-3.8-1.1-5.7-.6-3.1-1.9-6.2-3.4-8.8.5,1.3.9,2.7,1.3,4.3,1.4,5.1,1.2,8.7.6,7.7-.6-1-.6-4.1-2.2-9.4-1.1-3.5-2.6-5.3-3.4-6.1-.2,0-.4,0-.5,0h0ZM66.9,128.4c.3,0,.6.2.8.5.4.3-3,6.1-3.3,6.8-.7,1.9-.9,4-1.1,6-.5,4.7-.9,11.4.3,16,.2.6,1,2.7.5,3.2-.2.2-.6-.8-.7-.8-.9-2.1-1.6-4.7-1.8-7-1.3-4.7,1.9-24.9,5.2-24.7Z"/>
  <path class="cls-11" d="M69.6,113.1c-2.6.2-4.6,2.1-6,4.1-2.9,4.1-4.9,9-5.6,13.9-.1,1-.6,2.1-.4,3,1-2.6,1.6-5.3,2.5-7.9,1.3-3.8,2.9-7.8,5.9-10.8,1.3-1.3,3.3-2.2,5.2-1.6,2.7.9,4,3.6,5.2,5.9,2.4,4.3,3.8,9.2,4.8,14.1.4,1.7.6,3.5.9,5.2.7-.7-.2-2.5-.2-3.7-.6-3.8-1.3-7.5-2.7-11-1.2-2.9-2.5-5.9-4.4-8.4-1.2-1.6-3.1-2.9-5.2-2.8h0ZM71.1,120.3c.3.8,1.8,1.4,2.4,2.3,3.1,3.6,4.4,8.4,5.3,13,1.3,6.2,1.4,12.6.3,18.7-1.1,5.6-1.5,11.5-4.5,16.4-1,1.7-2.4,3.6-4.4,4-2.1.2-4-1.3-5.4-2.7-3.3-3.2-4.8-7.8-5.6-12.2-1-5.4-1.5-11-.8-16.5.6-4.3,1.7-8.6,3-12.8.9-2.9,2.3-5.7,4-8.3-1.2.8-2.1,2.3-2.7,3.6-1.9,3.7-3.2,7.7-4,11.7-1.2,5.7-1.9,11.6-1,17.3.7,5.1,1.6,10.6,4.6,14.9,1.6,2.3,3.7,4.3,6.4,5.1,1.7.5,3.4-.2,4.6-1.3,2.5-2.4,3.9-5.8,4.8-9.1,1.2-4.4,2-8.8,2.6-13.3.8-6,.2-12.1-1.3-17.9-1.1-4.2-2.7-8.6-6-11.7-.6-.5-1.3-1-2-1.3h0ZM80.8,161.7c-.4,1-.5,2.3-.6,3.4-.6,4.2-1.6,8.5-4.1,12.1-1.5,2.2-3.4,4.5-6.2,4.7-2.7.2-4.8-2-6.1-4.1-2.2-3.6-3.4-7.7-4.8-11.7,0,.9.2,2.1.5,3.1,1.2,3.8,2.6,7.7,5.2,10.7,1.5,1.8,4,3,6.4,2.3,2.8-.8,4.5-3.3,6-5.6,2.8-4.3,3.3-9.5,4.1-14.4.1-.4,0-.5-.4-.4h0ZM77.5,168.1c-1.2,3.1-2.3,6.3-4.9,8.6-1.6,1.4-4,1.8-5.8.6-1.2-.6-2.1-1.7-2.9-2.7.4,1,1.4,2,2.4,2.7,1.8,1.2,4.3,1.2,6.1,0,2.8-1.9,4.1-5.2,5.2-8.2,0-.3.6-1,0-.9h0Z"/>
  <path class="cls-11" d="M67.3,137.4c-.7,2.4-1.5,5-1.8,7.6-.2,1.9-.2,3.9-.1,5.8,0,1.3.2,2.6.4,3.9.2,1.4.3,5.4,1.9,6.1,1.2.6,2.9-4.2,3.1-4.9,1.3-4.5,1.5-9.7,1-14.3,0-.8-1.5-6.1-3.5-5.1-.4.2-.7.7-1,1h0Z"/>
  <path class="cls-25" d="M61.6,128.3s-3.5,9.4-4.1,17.5,1.1,14.5,1.3,15.1-1.5-7.9-1-13.8c.5-5.9,1.7-10.3,2-12.1.3-1.7,2-5.9,1.9-6.8h0Z"/>
  <path class="cls-11" d="M69,126.2c.4-.3,2.1,1.2,4,7.2,2,6.1,2.2,11,2.1,11.7s-1.2-8.1-3-12.8-3.1-5.3-3.1-6.1h0Z"/>
  <path class="cls-25" d="M76.3,125.9s3.8,7.6,4.1,15.1c.3,7.5-.3,9.8-.3,9.8,0,0,.4-9.3-.6-14.3s-3-9.7-3.2-10.5h0Z"/>
  <path class="cls-2" d="M23.2,133.6s3,1,3.4,5.5c2.3,9.2.5,14.2-.5,23.1-.2,2.3-.4,3.8-1.3,3.8-.9,0-3.8-9.9-3.4-18.7.5-8.8,1-11.8,1.8-13.6h0Z"/>
  <path class="cls-52" d="M21.4,146.1c.5-1.3,2.4.7,2,3.8s-.6,5-1.5,4c-.9-1-1.5-5.3-.5-7.8h0Z"/>
  <path class="cls-57" d="M31.4,116.1c1.1-1.3,2.4-2.4,3.6-3.7.8-.8,2.3-2,3.6-1.7.2,0,.3.3.5.3.3,0,.6,0,.8.1.4.3.6.9.8,1.3.3.5.7.8.8,1.4.6,2.7,0,6-.4,8.7,0,0,2.7-9.9,5.6-15.7,2.9-5.8,6-9.8,6-9.8,0,0-6.5,3-11.1,7.3s-9.6,9.9-10.3,11.8h0Z"/>
  <path class="cls-30" d="M36.5,109.5s5.4-4.1,8.2-6.1,3.5-2.3,4.1-2.5c.6-.2,1.3-.3,1.6-.6.3-.3,2.2-2.7,2.2-3s-6.2,3.1-9,5.1c-2.7,2.1-6.3,5.5-7.1,7h0Z"/>
  <path class="cls-57" d="M40.2,172.1c-.5,3.7,1,7.5,2.1,11,.6,1.8-2-2.6-2.2-2.4-.5.3-.3,3.4-.3,3.8.3,1.3.7,2.7,1.2,3.9.4,1,1.7,2.4,1.9,3.4,0,0-.2-.1-.2-.2-.5-.5-1-1-1.5-1.5-1.2-1.2-2.6-2.3-3.8-3.4-1.4-1.2-2.6-2.2-3.5-3.3,0,0-.2-.1-.2-.1.6,1.5,3.4,4.1,6.3,7.3s13,8.9,13,8.9c0,0-3.9-5.3-5.3-8.1s-3.6-7.7-6-15.8c-.6-2.1-1.1-3.1-1.5-3.5h0Z"/>
  <path class="cls-52" d="M40.8,104.8c-.8-.2-7,5.4-12,13.3-5.1,7.9-7.1,16.3-8.5,25.6-1.5,9.3,2,22,5.8,29.1,3.8,7.2,7.4,12.1,9.7,14.3,2.6,2.6,3.9,3.6,4.3,3.5.5,0-9.5-8.4-13.1-18.5s-6.8-18.3-5.2-29.7c1.6-11.3,4.5-17.9,7.9-23.7,3.4-5.8,9.8-12.9,11.1-13.9h0Z"/>
  <path class="cls-31" d="M43.1,156.4c0,1.3-1.5,4.7-.8,5.7.2.4,1.6,0,1.9-.2.3-.2.5-.6.7-.9.3-.6,1.5,0,1.7.4.2.4.2,1.1,0,1.5-.2,1.4-1.5,4.9-.9,6,.2.3.5-.2.8,0,.2.2.3,2.9.7,2.6.3-.2.4-4.5.6-5.2.4-1.3,2.6-4.3,2.5-4.5-.2-.4-.9.5-1.3,0-.2-.3,0-.9,0-1.1-.2-.4-1-.4-1.2-.8-.4-.5-.4-1.3-.7-1.8-.1-.1-.6-.1-.7-.3-.3-.8-.7-1.6-.9-2.4,0-.3,0-.6,0-.9-.2-.6-.6-1-.8-1.5-.3-1.2,0-2.5,0-3.8,0-2.6-.3-5.5.4-8,.8-1.7,1.4-3.4,2.4-5,.3-.5.5-1.2.9-1.6.2-.2,1.2-.4,1.2-.8s-1.8-2.7-2-2.6c0,0-.1,2.2-.3,2.4-.4.6-1.2-.9-2.2.3-.3.3-.3.9-.5,1.2-.4.6-1,1.1-1.1,1.8,0,.6.5,1.3.2,1.9-.2.4-.6.6-.7,1.1,0,.6.4,1.2.2,1.7-.2.4-1,.6-1.1,1.1-.3,1.7.9,2.2,1.2,3.6.2,1.3-.6,1.4-.8,2.1-.3.9.3,2,.3,2.8s-.5,1.4-.5,2.1c.1,1.2,1.7.7.9,2.8h0Z"/>
  <path class="cls-36" d="M49.9,104.8c-.7,1.9-1.1,3.9-1.4,5.9-.5,3-.8,6.1-.4,9.1.3.9.3-1.1.4-1.5.2-3.8.5-7.7,1.3-11.5,0-.6.9-1.9.1-2.1ZM51,105.4c-.4.8-.5,1.9-.7,2.8-.8,3.1-1.3,6.2-1.4,9.4,0,1.5,0,3.1.2,4.6.3.5.2-.9.2-1.2,0-2.7.1-5.3.5-7.9.3-2.5,1-5,1.4-7.5,0,0-.2,0-.3,0h0ZM47.8,107.8c-.5,2.4-.8,5-.7,7.5,0,1.1,0,2.2.5,3.2,0-.8,0-1.8,0-2.6,0-2.7,0-5.4.5-8,0,0-.2,0-.3,0h0ZM46.1,110.4c-.5,2.1-.3,4.4,0,6.6,0,.4.4,1.7.3.6-.1-2.4-.4-4.8,0-7.2,0,0-.2,0-.3,0ZM45.1,113.3c-.3,1-.2,2.3-.2,3.4,0,.9,0,2,.4,2.7,0-2-.1-4,.1-6,0,0-.2,0-.3,0h0ZM44,116.3c-.4,1.1-.2,2.3,0,3.4.2.7,0,1.9.5,2.3.4-.7-.2-2,0-2.9-.2-.9-.1-2-.3-2.8h0ZM42.9,118.4s0,.8,0,2.9c.1,2.1.2,4.3,1.3,6.1.6-.4-.4-1.4-.4-2.1-.5-3-.9-6.9-1.1-6.9ZM42.5,120.3c-.5,1.2-.2,2.6,0,3.8.2.8.2,2,.9,2.4.3-.6-.4-1.7-.4-2.4-.2-1.3-.3-2.7-.5-3.8ZM41.3,123.3c-.5,1-.2,2.3.1,3.3.3,1.1.6,2.2,1.2,3.2.4-.5-.5-1.6-.5-2.4-.3-1.4-.6-2.9-.8-4.1h0ZM42,123.8c-.3.7,0,1.5.2,2.2.2.5.5,1.9.9,1.5-.4-1.2-.8-2.5-1.1-3.8h0ZM41.2,126.2c-.3.7,0,1.6,0,2.4.3,1.3.7,2.6,1.4,3.8.7-.3-.4-1.2-.4-1.8-.4-1.5-.9-3.1-1.1-4.4h0ZM40.3,128.4c-.4.9-.2,1.9,0,2.9.3,1.5,1,3.1,2,4.2.3-.5-.6-1.4-.9-2.1-.9-2.3-.9-3.6-1.1-5h0ZM39.5,130.9c-.3.8.3,1.8.7,2.5.5.6.9,1.7,1.6,1.8-.9-1.5-1.8-3-2.3-4.4h0ZM39,133.1c0,.7.7,1.4,1.2,1.9.3.3,1.4,1.2,1.4.7-1-.7-1.8-1.7-2.6-2.6ZM38.9,135c.2.4,1.1,1.6,1.6,1.2-.6-.3-1-.8-1.6-1.2ZM38.7,136.1c.1.7,1.5,1.8,2.2,1.5-.8-.3-1.5-.9-2.2-1.5ZM38.8,140.3c0,.7,1.4,1.2,2.1,1.4-.4-.5-1.5-.9-2.1-1.4ZM39.1,141.2c-.6.5,2.1,1.2,1,.6-.3-.2-.7-.4-1-.6ZM38.3,143.6c.2.5,1.5.9,2.1.6-.2-.4-1.6-.3-2.1-.6ZM38.4,144.7c.1.4,1.6.7,1.8.2-.6-.1-1.2,0-1.8-.2ZM40.1,146.1c-.7,0-1.7.5-.5.4.2,0,1.2-.3.8-.4,0,0-.2,0-.3,0ZM40.3,147.1c-.5.1-2,.5-1.5,1.1.4-.3,1.6-.7,1.5-1.1ZM39.9,148.9c-.6.3-1.5.9-1.5,1.6.4-.6,1.3-1.1,1.5-1.6ZM40.7,151.4c-1,.2-1.9,1-2.6,1.8,0,.6.7-.6,1.1-.8.4-.4,1.4-.7,1.5-1.1ZM40.6,152.2c-1.1.3-1.9,1.2-2.5,2.1.8-.3,1.4-1.5,2.4-1.9h.1c0-.1,0-.2,0-.2h0ZM40.3,153.8c-.8.3-1.8,1.3-1.8,2,.5-.5,1.3-1.5,1.8-2ZM40.6,156.3c-.6,0-2,.7-1.5,1.2.3-.6,1.5-.9,1.5-1.2Z"/>
  <path class="cls-62" d="M53.9,99.2c-.2.3-.3.7-.5,1-.4.7-1,1.4-1.3,2.1-.5,1.6-.7,3.5-1.3,5-.6,1.5-.2-3.3-1.8-.8-.2.4-.3.8-.6,1.2-.2.3-.5.3-.7.7-.3.8-.2,1.6-.5,2.4-.3.7-1.4,1-1.7,1.8-.3.8-.6,1.9-.8,2.8,0,.4,0,.8,0,1.2-.2,1-1.2,1.4-1.5,2.3-.5,1.7-.7,3.4-1,5.1-.3,1.6-1.2,3.7-1.8,5.2,0,0,2-13.2,5.1-20,3.1-6.8,5.7-10,6.7-10.9,1-1,1.9-1.5,2.4-1.6s0,.9-.7,2.6h0Z"/>
  <path class="cls-62" d="M53.9,199.2l-2.9-2.8s-2.3-3.3-4.7-8.1c-2.4-4.8-3.8-11.1-3.8-11.1l1.7,3.8c.9,1.3,1.5,3.2,1.9,4.7,0,.3.6.6.8.9.4.7.9,3,1.3,3.4.2.2.7,0,.9.4.5.6.6,1.6,1.2,2.1,0,0,.1-.4.3-.2.2.1.9,1.6,1.2,1.5.3-.3-.3-1.3-.4-1.6-.2-.6.2-.2.2-.5,0-.6,0-1.1,0-1.7.2-1.8-1.3-3.7-.8-5.5l2.4,9.1,1.8,5.8s-.8.4-1.2-.1h0Z"/>
  <path class="cls-36" d="M39.7,158.5c-.3.1-.9.5-.7.8.1-.2,1-.5.7-.8ZM40.3,159.5c-.6.2-1.2,1.1-1.5,1.7,0,.6.4-.3.5-.4.2-.4.9-.8.9-1.2ZM40.3,160.7c-.4.3-1.1.8-1,1.2.3-.4,1-.8,1-1.2ZM39.8,162.6c-.3.2-.5,1.2,0,.5,0-.2.5-.4,0-.5ZM40.8,163.8c-.7.2-1.1,1.7-1.3,2.4-.1.2,0,.8.2.3.3-.9.7-1.8,1.1-2.7ZM42.3,164c-.8.5-1.2,1.5-1.4,2.4-.2.8-.3,1.7-.3,2.5.3.4.2-.7.3-.9.4-2.1.7-3.1,1.4-4h0ZM43.5,164.6c-.7.2-1.3,2-1.5,2.7-.3,1.4-.6,2.8-.3,4.2.2,0,0-.5.2-.2.5,0,.2-.9.4-1.3.3-1.5.7-3,1.2-4.5,0-.2.5-1,0-.6-.7,1-1,2.1-1.3,3.3-.2.8-.4,1.6-.5,2.5,0-1.3.2-2.7.7-4,.3-.8.6-1.6,1.1-2.2h0ZM43.3,168.5c-.4.8-.6,1.7-.8,2.5-.3,2-.4,4.1,0,6.1.6,0,0-1,.2-1.4-.3-2.3.2-4.6.7-6.9,0-.1,0-.3,0-.4ZM43.5,173.3c-.3,0-.4,1.2-.4,1.7,0,1.6,0,3.3.3,4.9.3.6.3-.3.2-.5-.2-2-.2-4,0-6.1h0ZM45.7,173.4c-.3,0-.2,1.1-.2,1.5,0,2.6.3,5.2.9,7.8.4,1.6.8,3.1,1.4,4.7,0,.4.6.6.4,0-.6-1.8-1.2-3.6-1.6-5.5-.4-1.8-.5-3.5-.7-5.3,0-1.1,0-2.2-.2-3.2h0ZM44.6,174.9c-.6.1-.3.9-.3,1.3,0,1.5.1,3.1.5,4.6.2.5.1-.6.1-.9-.2-1.7-.3-3.3-.3-5h0ZM46.9,177.8c-.2.6,0,1.2,0,1.8.4,3.2.9,6.5,2.3,9.5,0,.3.5.7.4.2-1.1-2.4-1.5-5.1-2-7.7-.2-1.3-.4-2.6-.7-3.9h0ZM48.2,181.3c-.3,0,0,1,0,1.4.3,1.5.8,3,1.4,4.5.2.5.5,0,.2-.3-.7-1.8-1.1-3.7-1.7-5.6h0Z"/>
  <path class="cls-37" d="M107.1,111.5c-.2.4-.3.7-.6,1.1-1.1.4-3.1,1.2-3.4,2.5-.2.6,0,1.3-.2,1.9-.2.4-1,.7-1.3,1.1-.6.8-.5,2.3-.7,3.1-.2.9-1.6.6-1.7,1.1-.3.8,0,1.8-.3,2.6-.2.4-.7.7-.8,1.2-.2.7.2,1.4-.1,2.1-.9,2.4-5,3.1-6.4,5.1,0,.1,3-.8,3.4-.6.2.1-.5,2.8-.4,3.5,0,.8-.7,1.3-.7,2-.3,3,1,5.9,2.6,8.1.7,1-2.9.7-2.6,1.4s2.2.3,2.5.4c.6.3,2.7,3.1,2.8,3.8.2.9-.3,1.2-.5,2-.1.5.8.9.8,1.4s-2.5.6-3,1.2c0,0,1.3.3,2.3.9,1.2.7-.8-.1-.9.6,0,.5.8,1,.8,1.4-.1.5-.9.6-1.2,1-.4.5.6,1.1.6,1.5s-2.6.2-2.7.4c-.1.2,2.1.9,2.2.9,1.1.2,0,1.5.4,2.3.2.8,1.1,1.4,1,2.3,0,.1-.3.1-.2.3.3.4.6.8.7,1.3,0,.3-.4.4-.4.7,0,.3.4.4.3.7-.1.7-1.6.2-.7,1.4.6.8,1.8.9,2.5,1.7.3.3.2,1,.4,1.2.4.5,1,.8,1.4,1.3.2.4-.1.7.2,1,.4.5,1.4.4,1.7,1,.2.4-3.5.6-1.1,1.3.4.1,1,.1,1.4.4.2.2,0,.6.2.7.3.2.8.2,1.1.4.3.2.3.7.7.8.4.1,1.5.2,2.2,0,0,0,.1.1.2.2,0-.1.1-.2.2-.3,0,0,0,0,0,0h0c1.1-1.8,2.2-4.4,2-7.3-.2-3.7-3.3-6.8-3.3-6.8l1.2-.8,1.9-2.3s1.4-3.1,1.2-8c-.3-4.9-4.1-8.5-4.1-8.5l2.9-2.9s1.4-3,1-8.6-4.1-7.8-4.1-7.8l2.6-4.1s.8-2.7,0-7.1c-.6-3-2.8-4.9-4.1-5.9h0Z"/>
  <path class="cls-58" d="M109.9,114.8c.7,1.9,1.2,7.8-.6,10.5-.3.5-.8.9-1.1,1.3-.6.6-2,1.1-1.8,1.9,0,.1.4,0,.4.1.7,1.1,1.3,2.2,1.9,3.3.1.2.4.3.5.5.5,1.1.7,2.1,1,3.3.1.5.5.9.6,1.5.5,2.4.6,5.7-.8,7.8-.4.5-.9.9-1.3,1.4-.4.4-.9,1-1.4,1.3.3,2.3,3.1,3.4,3.8,5.5.6,1.9.6,7.5-.4,9.3-.3.5-.8.9-.9,1.5-.1.5,0,.9-.3,1.3-.5.7-2.3,1.7-2.2,2.5,0,.9,3.8,4,4.5,6.3-.3-3.6-3.3-6.6-3.3-6.6l1.2-.8,1.9-2.3s1.4-3.1,1.2-8c-.3-4.9-4.1-8.5-4.1-8.5l2.9-2.9s1.4-3,1-8.6-4.1-7.8-4.1-7.8l2.6-4.1s.8-2.7,0-7.1c-.2-.9-.5-1.8-1-2.5-.1,0-.2,0-.4,0h0Z"/>
  <path class="cls-54" d="M81.2,64.5s-8,10.3-9.1,21.8c-1.1,11.5-.4,16,0,17.7s.9,3.6.6,4.2-3.8-13.5-2.8-21.7,5.6-15.4,5.6-15.4c0,0,4.2-6.4,5.8-6.5h0Z"/>
  <path class="cls-54" d="M74.7,185.9s-2.8,8.2-3.4,16.9.3,11.9,0,12.4c-.2.5-2.2-7.9-1.8-14.3.4-6.5,3.3-13.8,3.3-13.8,0,0,1.1-1.2,1.8-1.2h0Z"/>
  <path class="cls-43" d="M119.6,23.6c-.6,0-2.9,1.3-3.1,1.4-1.2.5-2.3,1.1-3.5,1.7-.1,0-1.6.6-1.6.6.5-1.1,2.1-1.9,3-2.6.2-.2.5-.3.7-.5-7.2,3.5-16.1,8.3-24.9,14.8-15.7,11.6-26.5,28.1-26.5,28.1-.3,1,10.1-8.9,16-13.7,5.9-4.8,15.4-10.6,15.4-10.6l11.4-6.7s5.9-2.3,12.8-5.1c-1.4.3-2.8.7-4.2,1,0,0-4.5,1.2-4.2.6.7-1.6,6.2-1.9,7.2-3.3,0,0-1.1.3-1.9.5-.9.1-2.1.9-3,.7,0,0,.8-.9,2.1-1.5,1.9-.7,3.7-1.6,5.6-2.4.1,0-.3,0-.4,0-.7,0-1.4.2-2,.5-.6.2-7.9,3.2-8,2.8,0-.2,5.9-3.5,6.9-3.8.2,0-.4,0-.6,0-.4,0-1.6.6-2,.5-.1,0,.2-.2.3-.3,1.1-.8,4.5-2.6,4.5-2.7s0,0-.1,0h0Z"/>
  <path class="cls-32" d="M100.2,34.8c0,0-.6.3-1.8,1-3.1,1.8-6.5,4.2-8.5,5.6-.2,0-.4.2-.6.2,1.1-.8,2.8-2.2,3.2-2.7.6-.6-2.3,1.4-3.5,2.3.6-.9,3-3.1,3-3.2-.6,0-1.2.7-1.7,1-15.7,11.6-26.5,28.1-26.5,28.1-.3,1,10.1-8.9,16-13.7,2.2-1.8,4.9-3.8,7.5-5.5.8-.7,1.7-1.4,1.9-2.3.5-.4,1.1-.7,1.6-1.1.8-.6,3.1-2.1,2.4-2.1-.4,0-2.4,1-4.1,1.8,2.3-1.5,5.9-3.8,6-3.8,0,0,2.7-1.2,2.4-1.4-.4-.5-2.6.9-2.9,1.1-.3.2-1.6.8-2.6,1.2,1-.7,3.2-2.3,2.4-1.8-.7.4-2.5,1.5-3.7,2.2,0-.2,1-.7,1-.9,1.1-.8,2.4-1.7,3.4-2.4,1.7-1.2,5.4-3.7,5.1-3.7h0Z"/>
  <path class="cls-43" d="M60.1,223.2c.1.3.4.7.7,1.1-.1-.2-.7-1.1-.7-1.1ZM60.9,224.3c1,1.5,4.5,7,8.3,12.4,4.4,6.3,13.6,14.6,13.6,14.6,0,0,8.2,6.4,18.6,12.9,0,0,0,0,0-.1,2.1,1.7,12.4,7.3,14.6,7,.3,0-.5-.2-.7-.4-.9-.4-1.8-.9-2.6-1.3-1.2-.7-4-1.5-4.8-2.8,0,0,.6.3,1.3.7.5.3,4.3,2.1,4.6,1.9,0,0-1-.7-1.1-.7-1.2-.6-2.1-1.2-3.1-2-.3-.2-1.2-.4-.9-.7.3-.2,2.1,1,2.4,1.2.8.4,1.5.7,2.3,1,1,.4,2.3.8,3.4.8s-.4-.2-.6-.4c-.6-.4-1.3-.8-2-1.1,0,0-5.4-2.4-5.2-2.6.2-.2,5.7,2.1,6.2,1.5,0-.1-1.3-.3-2.4-1.2-.3-.2-1.3-.7-.9-.7,1.8,0,4.4,1.1,6.1,1.8.2,0,1.4.7,1.5.3.2-.5-6.6-3.4-6.8-3.5v-.2c-7.5-3.7-17.3-9-19.7-10.3-3.2-1.7-14.6-11.1-14.6-11.1,0,0-13.9-12.4-17.5-17.2h0Z"/>
  <path class="cls-45" d="M78.8,247.3c0,0,0,0,0,0,2.4,2.3,4.2,4,4.2,4,0,0,8.2,6.4,18.6,12.9,0,0,0,0,0-.1,2.1,1.7,12.4,7.3,14.6,7,.3,0-.5-.2-.7-.4-.9-.4-1.8-.9-2.6-1.3-1.2-.7-4-1.5-4.8-2.8,0,0,.6.3,1.3.7.5.3,4.3,2.1,4.6,1.9,0,0-1-.7-1.1-.7-1.2-.6-2.1-1.2-3.1-2,0,0,0,0-.1,0-4.8-2.2-8.6-4.2-10.7-5.6-6.5-4.4-17.7-13.4-20-13.5h0Z"/>
  <path class="cls-32" d="M60.1,223.2c.1.3.4.7.7,1.1-.1-.2-.7-1.1-.7-1.1ZM60.9,224.3c1,1.5,4.5,7,8.3,12.4,4.4,6.3,13.6,14.6,13.6,14.6,0,0,.5.4.8.6,0-.1.2-.2.2-.3,0,0,4.6,3.3,7.4,5.1,2.8,1.8,3.5,2.2,4,2.4.5.1-3.6-2.4-4.2-2.9-.6-.5,1.5.7,2.2,1,.7.3-2.6-1.9-3-2.2s3.6,2.1,4.6,2.5c1,.4-3.4-2.5-3.9-3-.6-.6,2.3,1.1,4.2,2.1,1.9.9,1.9.3,1.2,0-.7-.3-3.9-2.2-4.8-2.9-.9-.6,1.7.4,2.6.9,1,.5,1.7.6,1.5.1,0,0-.3-.6-.7-1.1-.5-.2-1.6-.9-1.9-1-3.2-1.7-14.6-11.1-14.6-11.1,0,0-13.9-12.4-17.5-17.2h0Z"/>
  <path class="cls-22" d="M194.9,3.3c-.6,0-1.4.3-2.8.4-1.4,0-7.4,1-10.7,1.5.3,3.5,1,8.9,2.4,11.9,8.7-.5,16.3-.7,16.4-.9.1-.4,0-3.1-1.3-6.7-1.3-3.6-2.8-6-3.5-6.2-.2,0-.3,0-.5,0h0Z"/>
  <path class="cls-19" d="M176.4,278.2l-3.7,11.5c10.4,1.9,16.7,2.4,16.7,2.4,0,0,5,.8,6,.6s2.8-2.9,4.1-6.8c1.3-3.8,1.6-5.6.7-5.9-.6-.1-12-.8-23.8-1.9h0Z"/>
  <path class="cls-20" d="M174.1,285.4l-1.4,4.3c10.4,1.9,16.7,2.4,16.7,2.4,0,0,5,.8,6,.6.8-.2,2-1.8,3.1-4.2-3.2-.3-12.3-1.2-24.4-3.1h0Z"/>
  <path class="cls-51" d="M125.8,20.2c0-1.7,15.7-6.1,21.6-7.6s10.6-2.4,11.3-1.6-6.7,2.2-14.7,4.6c-8,2.4-18,5.8-18.2,4.7h0Z"/>
  <path class="cls-49" d="M190.3,5.4c-7.7.3-15.1,2.4-22.6,3.8-6.6,1.2-13,3-19.4,4.8-8.1,2.3-16.4,4.2-24.2,7.7-2.4,1.1-4.7,2.2-7.1,3.4,1.6-.5,3.4-1.3,5-2.1,6.6-3.1,13.6-5.1,20.5-7.1,6-1.7,12.1-3.3,18.1-4.8,6.5-1.7,13.1-2.9,19.6-4.2,3.3-.7,6.6-1,10-1.3v-.2q0,0,0,0ZM185.9,8.9c-7.6.9-15.1,1.9-22.6,3-10.9,1.7-21.7,4.5-32.1,8.3-6.2,2.2-12.1,4.9-18,7.7-3.8,1.8-7.6,3.6-11.1,5.8,1.1,0,2.3-1.2,3.4-1.7,7.3-3.8,14.8-7.2,22.4-10.2,7.6-3,15.4-5.2,23.3-7.1,9.8-2.3,19.9-3,29.8-4.8,1.6-.3,3.4-.5,4.8-1h0ZM190.2,10.4c-5.1.3-10.1,1-15.2,1.6-5.9.7-11.8,1.4-17.6,2.5-2.9.5-5.7,1.6-8.6,2.1,1.5.1,3.2-.5,4.7-.9,5.8-1.6,11.8-2.1,17.7-2.9,4.6-.6,9.1-.9,13.7-1.5,1.8-.2,3.5-.4,5.3-.7,0,0,0-.2,0-.2ZM192.1,12.9c-4.6.1-9.3.7-13.9,1.1-6.8.7-13.5,2.2-20.3,3.4-5.7.9-11.3,2.2-16.8,3.6-7.3,1.9-14.6,3.8-21.5,6.8-5.7,2.5-11.2,5.4-16.8,8,1.4,0,3-1.3,4.5-1.8,5.9-3,11.8-5.9,18-8.1,6.5-2.3,13.3-3.8,19.9-5.5,8.2-2.1,16.5-3.3,24.8-4.9,6.6-1.3,13.4-1.4,20.1-2.3,1.1-.1,2.4-.1,3.5-.3-.5,0-1,0-1.5,0h0ZM162.7,15.2c-10.7,1.7-21.3,4-31.7,7.2-5.4,1.7-10.8,3.4-15.9,5.9-2.4,1.2-4.9,2.4-7.4,3.6,1.2-.2,2.6-.9,3.8-1.4,4.5-2.1,9-4.3,13.8-5.8,6.7-2.1,13.4-4.2,20.3-5.8,5.7-1.4,11.4-2.3,17.1-3.4v-.2c0,0,0,0,0,0Z"/>
  <path class="cls-49" d="M190.3,290.7c-7.7-.3-15.1-2.4-22.6-3.8-6.6-1.2-13-3-19.4-4.8-8.1-2.3-16.4-4.2-24.2-7.7-2.4-1.1-4.7-2.2-7.1-3.4,1.6.5,3.4,1.3,5,2.1,6.6,3.1,13.6,5.1,20.5,7,6,1.7,12.1,3.3,18.1,4.8,6.5,1.7,13.1,2.9,19.6,4.2,3.3.7,6.6,1,10,1.3v.2c0,0,0,0,0,0ZM185.9,287.1c-7.6-1-15.1-1.9-22.6-3-10.9-1.7-21.7-4.5-32.1-8.3-6.2-2.2-12.1-4.9-18-7.7-3.8-1.8-7.6-3.6-11.1-5.8,1.1,0,2.3,1.2,3.4,1.7,7.3,3.8,14.8,7.2,22.4,10.2,7.6,3,15.4,5.2,23.3,7.1,9.8,2.3,19.9,3,29.8,4.8,1.6.3,3.4.5,4.8,1h0ZM190.2,285.7c-5.1-.3-10.1-1-15.2-1.6-5.9-.7-11.8-1.4-17.6-2.5-2.9-.5-5.7-1.6-8.6-2.1,1.5-.1,3.2.5,4.7.9,5.8,1.6,11.8,2.1,17.7,2.9,4.6.6,9.1.9,13.7,1.5,1.8.2,3.5.4,5.3.7v.2ZM192.1,283.1c-4.6-.1-9.3-.7-13.9-1.1-6.8-.7-13.5-2.2-20.3-3.4-5.7-.9-11.3-2.2-16.8-3.6-7.3-1.9-14.6-3.8-21.5-6.8-5.7-2.5-11.2-5.4-16.8-8,1.4,0,3,1.3,4.5,1.8,5.9,3,11.8,5.9,18,8.1,6.5,2.3,13.3,3.8,19.9,5.5,8.2,2.1,16.5,3.3,24.8,4.9,6.6,1.3,13.4,1.4,20.1,2.3,1.1.1,2.4.1,3.5.3-.5,0-1,0-1.5,0h0ZM162.7,280.8c-10.7-1.7-21.3-4-31.7-7.2-5.4-1.7-10.8-3.4-15.9-5.9-2.4-1.2-4.9-2.4-7.4-3.6,1.2.2,2.6.9,3.8,1.4,4.5,2.1,9,4.3,13.8,5.8,6.7,2.1,13.4,4.2,20.3,5.8,5.7,1.4,11.4,2.3,17.1,3.4v.2c0,0,0,0,0,0Z"/>
  <path class="cls-18" d="M75.1,227.6c.2-1-2.9-2.3-5.2-7.6-.9-2-1.3-4.2-1.8-6.4-.2-1.2-.8-5.7-2.8-4.9-.3.1-.6.3-.7.6-.5,1.2,1,4.3,1.3,5.6.3,1.1,0,2.3.3,3.4.8,2.8,8.1,12.5,8.8,9.3h0Z"/>
  <path class="cls-18" d="M66.7,218.9c-.3-.2-.7-.8-1-1.8-.5-1.5-.8-3.3-1.6-4.6-2.7-4-2.7,2.2-1.2,3.9,0,0,2.4,2.9,3.8,2.5Z"/>
  <path class="cls-18" d="M63.6,210.6c-1.2-.2-1.6-1.5-1.3-2.4s2.4,1.8,1.3,2.4Z"/>
  <path class="cls-18" d="M63.7,207.9c-.6-.3-.9-1.4-.9-2.7,0-.8-.4-1.5-.5-2.3,0-.1-.2-3.3.4-2.6.3.4.3,1.1.5,1.5.2.3.5.2.6.5.4.8,0,1.6-.1,2.4,0,.7.3,1.1.5,1.7,0,.1,0,1.4,0,1.4-.1,0-.3,0-.4,0h0Z"/>
  <path class="cls-18" d="M64.7,207.6c-.1-.2.2-.7.2-.9-.1-.8-.7-1.4-.5-2.3,0-.3.2-.9.7-.8.8.2,1.3,3.4,1,4.1-1.4,1.3-1.2.2-1.3,0Z"/>
  <path class="cls-18" d="M70.5,219.6c-.4-.4-1.4-3.8-1.8-6.5-.4-2.7-.9-4.8-.7-5.7s.8,4.4,1.5,7.1,1.4,4.8,1,5.1Z"/>
  <path class="cls-18" d="M71.5,221.4c-.6-1-.5-2.1,0-1.7.4.3,1,2.3,0,1.7Z"/>
  <path class="cls-18" d="M67,208.3c-.4-.4-.7-2.3-.2-2,.5.3.8,2,.2,2Z"/>
  <path class="cls-18" d="M60.6,210.9c.3-1,1,0,.9.6-.2.6-.9.1-.9-.6Z"/>
  <path class="cls-18" d="M60.3,209.8c-2.5-1.6-2.9-5.1-3.6-7.9-.2-.6-.5-1.6.4-1.7.5,0,.6.9.7,1.2.2,1.4.5,2.9,1.1,4.1.2.4.7.7.8,1.2.3,1,1.4,3.6.6,3Z"/>
  <path class="cls-18" d="M61.7,210.3c-.3.3-.6-.4-.8-.7-.3-.7-.3-1.6-.5-2.3,0-.4-.8-1.3-.5-1.7.8-1.2,2.1-.7,2.3.6,0,.7-.4,1-.6,1.6-.2.9.7,1.9,0,2.5h0Z"/>
  <path class="cls-18" d="M59.5,204.2c-.5-.9.4-2.1.7-1.2.3.9-.5,1.7-.7,1.2Z"/>
  <path class="cls-18" d="M58.1,200.2c-.3-.5-.1-1.7.4-1.3.5.4,0,1.6-.4,1.3Z"/>
  <path class="cls-18" d="M56.5,199.5c-.5-.2-.9-1.5-.4-1.8.6-.2.8,1.8.4,1.8Z"/>
  <path class="cls-18" d="M60.7,200.7c-.2-.7-.4-2.6.2-2.5s.2,2.6-.2,2.5Z"/>
  <path class="cls-18" d="M76,68.4c-.2.3-.8.8-1.4,1.7-.9,1.3-2.4,2.6-3,4.1-.7,1.7-1.3,6.2-2.8,7.3-1.6,1.1-.1-3.9-.7-3.9-1.1-.1-1.6,2.5-2.2,3.2-.6.7-1.3.7-1.5.9-1.2,1.2-1.3,3-1.7,4.5,0,.2-.2.9-.5.9-.9.1.6-3.3.1-3.5-.3-.2-2.3,3.5-2.9,2.6-.5-.7.4-2.3.7-2.9,0,0,5.8-7.1,7.9-9.3,2.1-2.2,6.1-5.1,7.8-5.5h0Z"/>
  <path class="cls-18" d="M67.4,79.5c-.5-.2-1.1,1.7-.9,2.7.1.9,1.5-2.1.9-2.7Z"/>
  <path class="cls-18" d="M64.9,82.3c-.1.2-.1.8-.2,1-.1.5-.5.9-.6,1.4,0,.3,0,.6,0,.9-.1,1-.3,2-.5,3,0,.6-.4,1.1-.4,1.6s.2,1.5,1,1.5c.6,0,.7-1,.8-1.5,0-.4.2-.8.2-1.3,0-.4-.2-.8-.3-1.3-.1-.7-.2-1.5-.1-2.2.1-1.3,1.8-5.2.2-3.2h0Z"/>
  <path class="cls-18" d="M65.6,84.8c-.3-.3-.8.9-.5,1.3.2.4.8-.7.5-1.3Z"/>
  <path class="cls-18" d="M67.3,82.1c-.5-.2-.5.9-.8,1.2-.5.5-.6.5-.5,1.5,0,.5.1.6,0,1.2,0,.9-.5,2-.4,2.9,0,.3.5.8.9.7.5,0,.6-.9.6-1.3,0-1-.2-2,0-3,.2-1.1,1.4-2.7.2-3.3h0Z"/>
  <path class="cls-18" d="M68.9,82c-.4,0-.8,1.1-.5,1.4s.8-1.1.5-1.4Z"/>
  <path class="cls-18" d="M68.6,83.9c-.4,0-.8,1.2-.8,2.5s-.4,3.3.2,4.7c.6,1.4.4-1.4.3-2.6-.1-1.2.7-4.1.3-4.6h0Z"/>
  <path class="cls-18" d="M61.4,92.9c1-.3.5-2.6.5-3.7,0-.3.2-.6.1-.9,0-.5-.5-.7-.6-1.2,0-.4,0-1.2-.6-1.1-.5,0-.5,2-.5,2.3,0,.8-.7,1.3-1,2,0,.3,0,.7,0,1,.2,2,1.5,1.6,2.1,1.5h0Z"/>
  <path class="cls-18" d="M62.6,92c-.3.2-.4.6-.5.9-.1.8,1.4.5,1.1-.6,0-.3-.3-.3-.5-.3Z"/>
  <path class="cls-18" d="M58.8,92.1c-.3-.5-.4-1.1-.2-1.6.1-.3.3-.6.5-.9,0-.1,1.2-2.9.3-2.6-.2,0-.2.5-.3.6-.7,1.1-1,2.3-1.4,3.5-.2.6-1,2.4-.5,3,.3.3.6-.6.7-.7.2-.3,2,.3,1-1.2h0Z"/>
  <path class="cls-18" d="M62.8,88.5c-.4-.2-.6,1.6-.4,2.3.2.7.8-1.8.4-2.3Z"/>
  <path class="cls-18" d="M65.8,90.2c-.3-.2-.8,1.6-.2,2.2.7.5.6-.7.8-1,.2-.3.9.2.9-.4,0-.5-1.1-1.3-1.6-.8h0Z"/>
  <path class="cls-18" d="M67,93c-.3-.4-.7.5-.4.9.3.4.8-.4.4-.9Z"/>
  <path class="cls-18" d="M59.6,94.1c.4-.3,1.4.7.8,1s-1.1-.3-.8-1Z"/>
  <path class="cls-18" d="M57.4,96c-.5-.2-1,1-.5,1.3.5.3.9-.8.5-1.3Z"/>
  <path class="cls-26" d="M53.8,162.3s-1.5,3.8-1.9,8-.3,9.1,0,11.3c.4,2.2.9,7.2,1.6,9.1.7,1.9,1.5,4.9,1.6,5.9s.8,3.1.9,3.9c0,.8.5,2.6.5,3.4,0,.8-2.7-7.3-3.1-9.3s-2.7-10.3-2.7-16.4c0-6.1.1-11,.1-11l1.4-4.6s1.3-1.2,1.5-.3h0Z"/>
  <path class="cls-26" d="M71.7,187.2s-1.7,5-2.3,9.1c-.6,4.1-.6,7.6-.5,9.6s.6,3.7.9,4.6-.6-8,.4-13,2.9-10.6,2.9-10.6c0,0-.8-.5-1.4.2h0Z"/>
  <path class="cls-26" d="M53.8,132.8s-1.6-2.9-2-5.6.7-14.1,1.2-18.7c.5-4.6,2.4-10.3,2.3-11.3,0-1-3.3,9.4-4.3,18s-.4,13.5,0,15.1c.5,1.6,2.5,4,2.5,4,0,0,.5-.6.3-1.5h0Z"/>
  <path class="cls-26" d="M72,108.9s-2.3-5.1-3.1-11.2,0-12.4.9-15.6,2.1-5,2.1-5c0,0-2.6,7.1-2.4,13.3.2,6.2,1.5,11.9,1.5,11.9l2.2,7.2s-.5-.2-1.2-.6Z"/>
  <path class="cls-41" d="M57.8,97.8h0c-.4.1-.4.9-.4,1.2,0,2-.2,4.2.2,6.2.1.7.4,1.3.6,2,0,.3.6,2,0,2.2-.6.2-.8-2-.9-2.3,0-.2,0-.5-.2-.7-.7-2.4-.9,1-1.2,1.2-.4.2-.3-1.4-.3-1.6,0-.2.5-4.8-.2-4.5-.6.3-.5,2.9-.6,3.4-.8,7.7-3.1,15.7-1.1,23.4,0,.2.2.4.3.6,0-1.4,0-6.7.2-9.1.2-2.7,1.7-11.4,2-11.6.3-.2.8,4.1.8,4.1l.5,6.2.7-1.5s-.3-5.8-.2-6.1,1.1,1.8,1.4,2-1-7.1-1.1-8.5c-.1-1.4.2-4.2.7-4.3s1.6,4,1.6,4l.8,6.4.3-1.1s0-.2,0-.3v-2c0-1.5-1.3-8-2-8.4-1.3-.8-1.2,1.6-1.7,1-.2-.2,0-1.8-.4-1.9h0Z"/>
  <path class="cls-41" d="M63.1,93.2c-.3,0-.4,2.2-.4,2.5-.2,1.3-.4,2.9-.2,4.3,0,.3.2.7.3,1,0,.3,0,.7,0,1,0,.7,0,1.3,0,2,0,.2.1.4,0,.6,0,.2-.5,1-.7,1.1-.2.1-.2-.5-.4-.2-.2.5,0,1.1,0,1.7-.2.5-.2,2,0,3.4l.3-1.1s0-2.7.4-2.9,1.3,3.7,1.3,3.7l.6-.7s-.8-5.1-.9-8.2-.2-5,.1-5.4,1.2,4.2,1.6,6,.6,6.7.6,6.7l.9-.2s-.2-3.7,0-6.1c.1-2.4.2-3.5.7-3.8.5-.2,1.5,1.8,2.2,3.7s1.1,4.3,1.1,4.3l.9,1.8v-.4c-.4-.8-.6-2.4-.9-3.4-.4-1.5-.7-3.1-1.2-4.5-.2-.6-.5-1.1-.7-1.7-.2-.5-.5-2.1-1.1-2.2-.4-.1,0,1.8-.6,1.6-.4-.2-.4-1.6-.5-1.9,0,0,0-.3-.1-.3-.2.2-.2,4.1-.2,4.6,0,0,0,.7-.3.7-.3,0-.2-2.4-.2-2.6s0-.7,0-1.1c0,0,0-.2,0-.3,0,0-.2.4-.2.3-.4-.3-.5-1-.6-1.4,0-.2,0-1.7-.2-1.7-.2,0-.3,1-.7.7-.2-.2-.4-1.6-.7-1.6h0Z"/>
  <path class="cls-41" d="M61,102.9s-.2-2.8-.3-3.7-.2-1.7-.3-2c-.2-.3,0,1.2,0,1.8,0,.6,0,1.7,0,1.7,0,0,.2,1.6.6,2.2Z"/>
  <path class="cls-41" d="M59,99.2s0-1.6,0-1.9-.3,2-.3,2.3.4,0,.4-.4Z"/>
  <path class="cls-41" d="M53.9,110.2s.2-2.2.4-3.5c.2-1.3.4-2.1.4-2.9,0-.8-1.3,5.2-.8,6.3h0Z"/>
  <path class="cls-41" d="M56,104.8c-.1-.4,0-2.3,0-3.1,0-.8,0-1.7,0-2.2s.3.9.2,2.1c0,1.2,0,2.9-.3,3.2Z"/>
  <path class="cls-41" d="M54,165.2c-.9,4.3-2.1,8.8-1.6,13.2,0,0,0,.4.2.3.2-.1,0-1.2.1-1.5,0,0,0-.2,0-.1.4.6,0,2.4.1,3,0,1.7,0,3.4.3,5.1,0,0,.1,1.3.3,1.3.2,0,0-1,0-1.1,0-1-.3-3.3,0-4.2,0,0,.3.8.3.9,0,.5,0,1.1.2,1.6.2,1.7.4,3.4.8,5.1.4,1.7.5,3.5.9,5.2.1.6.3,1.1.5,1.7,0,0,.2.7.3.6.1-.3-.5-3.2-.5-3.9,0-.1,0-.9.3-.8.6.4.8,5,1,5.9,0,0,0,.9.3.9.2,0,0-2.6,0-2.8-.1-1.2-.3-3.1,0-4.3,0,0,.1.4.2.4.2,0,.2-.7.2-.8.1-1.2,0-2.6,0-3.8,0-.2,0-3.3.2-3.3s.3,2.1.3,2.4c.2,1.8.3,3.6.3,5.4,0,1.5-.2,2.9,0,4.4,0,.3.2,2.6.3,2.6.4,0,.3-1.2.3-1.3,0-1.4,0-2.8,0-4.2,0-.1,0-.8,0-.9,0,0,.4,1.4.5,1.5.2.2.3-.6.8-.3.5.3,0,2.9,0,3.3,0,.2-.4,2.4-.3,2.4.3,0,.5-3.2,1.1-2.9.5.3.7,3.3.9,3.1.4-.2,0-1.4.2-1.7.1-.6.5,0,.7-.5.5-1.1.3-2.5.4-3.7,0-.1,0-2.5.3-2.4.2,0,.2.8.2.9.4,2.1,0,4.2-.3,6.3,0,.2-.2,1.7,0,1.8.2,0,.4-1.9.4-2,.1-1.9.5-3.7.6-5.6.1-1.6.6-1.2.6.4v1.9c-.2,3.1-.4,4.9-.3,6.8.1,1.9.4-.2.4-.7s1.1-.4,1.2.4.5.7.7.2c.2-.5,0-1,.3-2.9.2-1.9.9-4.6,1.1-5.7s-.1,1.7-.5,3.9-.5,3.5-.2,2.8c.3-.7.7-4.5.9-5.9.3-1.5,1.1-4.4,1.3-5s-.1,1.5-.4,3.5-.9,4.3-.9,5.2c0,.9,1-3.2,1.5-5.4.5-2.2,1.5-4.3,1.5-4.3v-.2c0,0-2.9.9-2.9.9l-.7,3.6-1.1,5s-.2,3.5-1.1,3.1.2-8,.2-8l.3-4.1-.8-.7s-.5,3.3-1,3.5-.6-4.3-.6-4.3l-1.1-.8v7.3s-.3,3.6-.8,3.5-.4-5.6-.4-5.6v-6.6c0,0-.7-1.1-.7-1.1l-.2,2.8s-.2,6.6-.6,6.4c-.4-.3-1.1-3.8-1.3-5.6-.3-1.9-.4-7.6-.4-7.6l-.8-1.6-.3,5.2s-.4,8.1-.8,7.9c-.4-.3-1.5-4.8-1.7-6.1-.2-1.3-1-6-1-9.4s.4-8.4.4-8.4l-.2-1.4h0Z"/>
  <path class="cls-11" d="M68.5,143.1c-1.5-.1-.8,3-.8,4.9s-1.2,4.3-.7,6.1c.4,1.7.7,2.2,1.4,1.3s1.5-3.2,1.5-5.3-.3-6.6-1.4-7h0Z"/>
  <path class="cls-59" d="M61.5,95.3c-.7,0-.5,1.4-.3,2.5s.3,2.6.3,3.4c0,.8,0,2.1.3,2.6s.3-1.4.2-3.3-.1-4.8-.4-5.3Z"/>
  <path class="cls-59" d="M58.7,95.7c.2-.8,1.2,0,1,.8-.2.8-1.2.4-1-.8Z"/>
  <path class="cls-59" d="M65.3,95.8c-.3-.5-.7-2-.4-2.6.3-.6.8-.1,1,.5.1.6-.2,2.2-.6,2.2Z"/>
  <path class="cls-59" d="M57.8,192.4c-.7,0-.3,2.6,0,3.2.3.6.4-2.7,0-3.2Z"/>
  <path class="cls-59" d="M59.8,196c-.5-.3-.4,3.1-.4,4,0,.9-.6,1.6-.4,2.3.2.7.4-1.4,1-1.1.6.4.7,2.2,1.1,2.7s.2-1.5-.3-2.3-1-2-1.1-2.7c0-.7.5-2.3,0-2.9h0Z"/>
  <path class="cls-59" d="M63,197.9c-.5.3-.5,1.2-.1,1.7.3.6.6-1.3.1-1.7Z"/>
  <path class="cls-59" d="M66.8,204.9c-.2.6-1.3-2.4-1-2.9s.7.5,1.1.6c.4.1,1.2-1.7,1.2-2.3,0-.6.4.4.2,2.7-.2,2.3.4,3.9.2,4.2s-.6-1.9-.9-2.9c-.3-1-.7-.2-.9.5h0Z"/>
  <path class="cls-12" d="M66.2,210c-.7-.2-.9,1-.4,1.9.5.9,1,1.9,1.1,2.6,0,.7-.3,2,0,2.8.3.8,1.2.4,1.1-.8-.2-1.3-.7-6.3-1.8-6.4h0Z"/>
  <path class="cls-12" d="M62.5,212.4c.4-.7,1.5,0,1.3,1.2-.1,1.2-1.6-.4-1.3-1.2Z"/>
  <path class="cls-12" d="M62.1,215.7c0-.3.5-1.1,1-.7s.7,1.4,1.1,2.1,1.6,1.8,2.1,2.3.5,1.7.2,2.2-4.4-4.3-4.5-5.8Z"/>
  <path class="cls-12" d="M67.3,219.1c.1-.7,1.2-1,1.6-.1s.8,2.1.2,2.3-1.9-1.2-1.8-2.2h0Z"/>
  <path class="cls-12" d="M67.5,221.6c.2-.5,1.4.4,1.1,1s-1.4-.1-1.1-1Z"/>
  <path class="cls-12" d="M65.1,204.5c-.4.2,0,.7,0,1.2.1.5,0,1.2,0,1.5,0,.3.4.3.5-.3s-.2-2.2-.5-2.4h0Z"/>
  <path class="cls-12" d="M63.1,202.8c-.3-.1-.3.9-.2,1.3s.2.9.2,1.4c.2.3.3-.1.3-.8s0-1.8-.3-1.9h0Z"/>
  <path class="cls-12" d="M60.5,206.1c0-.4.5-.6.8-.3s.4.8.2,1c-.2.2-.4,1-.4,1.2,0,.2.4.9.2,1.1s-.4-.9-.4-1.3.1-.9,0-1.1c0-.2-.5-.2-.5-.6h0Z"/>
  <path class="cls-12" d="M58.3,205.6c-.2,0,.2,1.4.5,2,.3.6.8,1.3,1,1.2.2,0-.2-.9-.5-1.4s-.8-1.8-1.1-1.9Z"/>
  <path class="cls-12" d="M57.6,203.4c-.2,0,0,.8.2,1,.1.2,0-.8-.2-1Z"/>
  <path class="cls-12" d="M61.2,88.4c-.4-.3-.3.8-.5,1.4-.2.5-.8.9-.5,1.5.2.6.7.8.9.3.3-.5.5-2.7.1-3.2h0Z"/>
  <path class="cls-12" d="M57.5,92.7c-.2-.1.3-.9.3-1.2,0-.3,0-.7.2-.9.1-.2,0,.8.1,1.2,0,.4.6.7.4.9-.2.2-.7,0-1,.1Z"/>
  <path class="cls-12" d="M65.7,91.5c-.1-.2,0-.8.3-1,.2-.2.7,0,.7.2,0,.2-.8.1-1,.8h0Z"/>
  <path class="cls-12" d="M64,90.4c-.3-.2,0-1,0-1.6s.2-1,.1-1.6.4,0,.4.8c0,.8-.2,1.4-.2,1.7,0,.3-.2.9-.4.6h0Z"/>
  <path class="cls-12" d="M66.3,88.7c-.2-.2-.1-.9,0-1.5,0-.5.3-1.1.2-1.7,0-.6-.2-1.1-.2-1.4,0-.3.5-.4.6-.6.1-.3.2.3,0,.7-.2.3-.3.7-.2,1.1s0,1.3,0,1.8-.1,1.8-.5,1.7h0Z"/>
  <path class="cls-12" d="M68.8,80.5c-.3-.2,0-1.3,0-1.8s.4-1,.8-1.3.5.5.3,1.2c-.3.7-.6,2.2-1,1.9Z"/>
  <path class="cls-12" d="M60.7,84.4c-.2-.4.2-1.1.5-1.6.3-.5.9-.8,1.1-1.3.2-.5.9-.9,1.1-.9s0,.8-.3,1.3c-.3.5,0,1.2-.3,1.4s-.2-.5-.3-.8c0-.3-.8.4-1,.7-.2.3-.6,1.7-.9,1.2h0Z"/>
  <path class="cls-12" d="M64.2,80.7c-.3-.4.2-1.3.6-1.3.4,0-.3,1.6-.6,1.3Z"/>
  <path class="cls-12" d="M65.9,78.1c-.2-.6.5-1.5.9-2.1.4-.6,1.2-.3,1.5-.9s.8-1.1,1.1-1.1.2,1.4.1,2c-.1.6-.6,1.8-.8,1.5-.2-.3-.1-.7-.4-.9-.3-.2-1.2.3-1.4.8s-.9,1.3-1,.8h0Z"/>
  <path class="cls-61" d="M136.5,35.4c-1.4.2-2.7.4-4,.7-11.6,2.5-21.6,5-31.2,10s-16.4,9.9-20.6,13.6c-2.6,2.3-6.6,6.1-10.6,10.3.4.1.9.4,1.3.4.4,0,3.5-1.8,3.7-2.2.3-.7-.4-1.4,0-2,.3-.4.8-.3,1.1-.6.5-.4.6-1.2,1-1.7.4-.5,1.1-.6,1.6-1,.6-.6.3-2.3,1.8-2.1.3,0,.3,1.8.2,2-.4.8-1.3,1.2-1.6,2.1,0,.2-.1.7,0,1.1,2.9-2.8,5.3-4.8,7-6.2-.6,0-1.4.8-2,.6-.3-.1-.4-1-.3-1.3.1-.2.4,0,.6-.2.2-.3.3-.8.5-1.1.2-.2.5-.2.7-.5.5-.7.6-1.9,1.3-2.4.3-.2.8-.2,1.2-.4,1.5-.8.5-1.2,2.5-1.1.1,0,.5,0,.6,0,.9.7-1.4,1.9-1.6,2.1-.2.3-.3,1.1,0,1.3,1.4-1,2.9-2,4.8-3.2.2-.8-1.4-1.5-.6-2.2.2-.2,2.4-1.2,2.5-1.2.5,0,1,.2,1.5,0,.9-.4,1.8-1.7,2.5-2.3.5-.5,1.3-.2,1.8-.5.7-.4.7-1.2,1.4-1.6,1.2-.7,3.3-.7,4.4-1.1,1.1-.4,2.1-2.1,3.4-1.4.7.4-.6.9-.2,1.3,0,0,.8,0,1.7,0,0,0,.2,0,.2,0,1.4-.5,2.8-1,4.3-1.4-.7-.4-2-.7-1.1-1.3,1.9-1.3,2.8-1.9,5.2-1.9s.3,1.3.7,1.9c1-.2,2-.5,3-.7,0-.6-.5-1.3-.2-1.7,1.3-1.5,4-.8,5.8-.8s4.2-1.7,5.5-3.2h0Z"/>
  <path class="cls-61" d="M154.7,34.6c.1.6.9,1.8-.9,2-.8,0-1.1-.7-1.9-.8-1.1-.1-.9,1.1-1.9,1.3-.7.2-3.2-.5-4-.6-1.1-.2-2.4.3-3.5.3s-.9-1.4-2.3-.9c-.5.2-.5.9-1.2,1.1-.7.2-1.7,0-2.3.5-.6.5-.8,1.2-1.2,1.7,3.6-.5,6.9-.9,9.4-1,7-.5,25,0,40.9,5.3,1.9.6,3.7,1.3,5.4,2-.4-1.1-1.7-2.8-.8-3.1.4-.1,2.5.3,2.6-.2,0-.1,0-.2,0-.3-1.6-.6-3.1-1.1-4.7-1.7-.4,0-.8,0-1.3,0-.7,0-1.4-.4-2-.3-1.2.2-1.8,1.2-3.3.7-.7-.2-1.3-1-1.9-1.1-.5-.1-1.1.1-1.6-.2-.4-.3-.8-1.4-1.3-1.5-2.1-.4.4,1.6-2.3,1.6-1.1,0-1.6-.7-2.5-1.2-.6-.3-2,0-2.7,0-.7-.1-1.2-.8-1.9-.9-.7-.2-1.2.3-1.9.4-.9.1-1.3-.5-2.1-.6-1.1-.1-1.9.6-3,.2-.4-.2-.8-.6-1.1-.9-.8-.7.6-1.1,1.4-1.6-2-.1-4-.2-6-.3h0ZM198.1,44c.1.7.2,1.5.2,2.5,0,.4,0,.8.3,1.2.3.3.5.3.9.3,1.8,0,1-1.4,2.6-.9.7.2.8.9,1.3,1.2.4.2,1,0,1.4.3.5.3.5,1.1,1,1.5.8.5,1.6,0,2.4.3.5.2.8.8,1.2,1.1.5.4,1.2.5,1.7.9,2.8,2.1.4,2.2-.4,2.7,1.4.8,2.2,1.3,2.2,1.3,0,0,2.4,1.8,5.5,4.2-.3-1.1-.6-2.1-.1-2.3,1-.3,4.2,1.3,4.6,1.9.4.6.3,1.9.9,2.4.5.4,1.2.4,1.8.7.7.5,1,1.5,1.7,2.1.9.7,2.2,1,3,1.7.5.4.5,1.3.9,1.8,1.6,2.2.2,1.3-.2,2.3,1.6,1.5,3.1,3.1,4.5,4.6,0-.3-.4-.5-.4-.9-.1-2.2,1.6-1.9,2.7-.6.6.7.5,2,1.1,2.8.6.9,2,1.1,2.6,1.9.7,1.1.9,2.7,1.8,3.7,1.1,1.3,2.7,2.1,3.9,3.4.6.6.9,1.4,1.5,2.1.4.5.8.8,1.2.9-.3-.5-.5-1-.8-1.4-5-8.2-16.1-21.2-21.9-25.6s-11.1-9.3-21.4-14.7c-2.4-1.2-4.9-2.4-7.5-3.5h0Z"/>
  <path class="cls-61" d="M244.8,87.9c3,4.5,4.7,7.7,4.7,7.7,0,0,4.6,8.8,6.8,14.1,1.2,3,2.5,6.9,3.5,10.6.2-.3.5-.6.6-1,.1-.6-.4-.8-.5-1.3,0-.7-.4-4.2-.2-4.4.2-.4.5-.5.8-.5-.5-1.4-1-2.7-1.7-4.3-.9.3-1.6,1.3-2.2.1-.3-.5-1-1.6-1.1-2.1-.1-1.4.4-2.6,0-4.1-.5-1.9-1.7-.9-2.1-2-.3-.7-.2-1.5-.5-2.2-.3-.9-.8-2-1.2-2.9-.2-.4-.7-.1-.9-.4-.2-.2-1.1-1.7-1.2-2-.4-1.4.6-2.3-.6-3.5-1.2-1.3-2.7-1.1-4.1-1.7h0ZM262.4,124.2c-.5,0-.7,1-1.3,1.2.2.7.4,1.5.5,2.1,1,4.3,1.3,11,3.9,15.2,0,0,0,0,0,.1.4-.7.2-2,.2-2.5,0-1.5-1.5-2.8-1.8-4.4-.1-.6.3-1,.3-1.5,0-.4-.5-.8-.4-1.2,0-.7.5-1.3.3-2-.2-.9-1.2-.9-1-2,0-.6.7-.3,1.1-.3-.2-1.3-.4-2.6-.7-3.9-.1,0-.3,0-.4-.2-.2-.2-.5-.7-.8-.7h0Z"/>
  <path class="cls-13" d="M256.4,187.7c-2.8,5-6.9,12.8-6.9,12.8,0,0-4.7,9.1-13.1,18.7-8.4,9.6-23.4,20.4-23.4,20.4,0,0-11.2,7.4-27.1,12.8-15.9,5.4-33.8,5.8-40.9,5.3-7-.5-19.9-2-31.7-6.2-11.8-4.2-22.9-11.7-26.3-14.5-3.5-2.9-11.9-9.9-19.6-19.9-7.7-10-12.2-18.4-12.2-18.4-.3.6,0,1.9,0,1.9l1.9,5.6s1.4,4.9,6.7,12.1c5.3,7.2,13,14.4,17.1,18.1,4.2,3.7,11,8.6,20.6,13.6,9.6,5,19.5,7.5,31.2,10,11.6,2.5,28.6,1.5,39,0,10.4-1.6,23.9-6.1,34.1-11.5,10.2-5.4,15.6-10.3,21.4-14.7,5.8-4.4,16.7-17.5,21.9-25.6,4.1-6.4,9.2-19.6,11.7-22.5,2.5-3,7.5-9.8,14.4-9.9,0,0-10.6-2.4-18.5,11.9h0Z"/>
  <path class="cls-18" d="M76,227.7c-.2-.3-.8-.8-1.4-1.7-.9-1.3-2.4-2.6-3-4.1-.7-1.7-1.3-6.2-2.8-7.3-1.6-1.1-.1,3.9-.7,3.9-1.1.1-1.6-2.5-2.2-3.2-.6-.7-1.3-.7-1.5-.9-1.2-1.2-1.3-3-1.7-4.5,0-.2-.2-.9-.5-.9-.9-.1.6,3.3.1,3.5-.3.1-2.3-3.5-2.9-2.6-.5.7.4,2.3.7,2.9,0,0,5.8,7.1,7.9,9.3,2.1,2.2,6.1,5.1,7.8,5.5h0Z"/>
  <path class="cls-61" d="M136.5,260.7c-1.4-.2-2.7-.4-4-.7-11.6-2.5-21.6-5-31.2-10s-16.4-9.9-20.6-13.6c-2.6-2.3-6.6-6.1-10.6-10.3.4-.1.9-.4,1.3-.4.4,0,3.5,1.8,3.7,2.2.3.7-.4,1.4,0,2,.3.4.8.3,1.1.6.5.4.6,1.2,1,1.7.4.5,1.1.6,1.6,1,.6.6.3,2.3,1.8,2.1.3,0,.3-1.8.2-1.9-.4-.8-1.3-1.2-1.6-2.1,0-.2-.1-.7,0-1.1,2.9,2.8,5.3,4.8,7,6.2-.6,0-1.4-.8-2-.6-.3.1-.4,1-.3,1.3.1.2.4,0,.6.2.2.3.3.8.5,1.1.2.2.5.2.7.4.5.7.6,1.9,1.3,2.4.3.2.8.2,1.2.4,1.5.8.5,1.2,2.5,1.1.1,0,.5,0,.6,0,.9-.7-1.4-1.9-1.6-2.1-.2-.3-.3-1.1,0-1.4,1.4,1,2.9,2,4.8,3.2.2.8-1.4,1.5-.6,2.2.2.2,2.4,1.2,2.5,1.2.5,0,1-.2,1.5,0,.9.4,1.8,1.7,2.5,2.3.5.4,1.3.1,1.8.5.7.4.7,1.2,1.4,1.6,1.2.7,3.3.7,4.4,1.1,1.1.4,2.1,2.1,3.4,1.4.7-.4-.6-.9-.2-1.3,0,0,.8,0,1.7,0,0,0,.2,0,.2,0,1.4.5,2.8,1,4.3,1.4-.7.4-2,.7-1.1,1.3,1.9,1.3,2.8,1.9,5.2,1.9s.3-1.3.7-1.9c1,.2,2,.5,3,.7,0,.6-.5,1.3-.2,1.7,1.3,1.5,4,.9,5.8.9s4.2,1.7,5.5,3.2h0Z"/>
  <path class="cls-61" d="M160.7,261.1c-.8-.5-2.3-.9-1.4-1.6.3-.3.7-.8,1.1-.9,1.1-.4,2,.3,3,.2.8-.1,1.2-.7,2.1-.6.7,0,1.2.5,1.9.4s1.2-.8,1.9-.9c.8-.2,2.1.2,2.7,0,.9-.5,1.4-1.2,2.5-1.2,2.7,0,.2,2.1,2.3,1.6.5-.1.9-1.2,1.3-1.5.5-.4,1.1,0,1.6-.2.6-.1,1.2-.9,1.9-1.1,1.5-.4,2.1.5,3.3.7.6.1,1.4-.3,2-.3.4,0,.9,0,1.3,0,1.6-.5,3.1-1.1,4.7-1.7,0-.1,0-.2,0-.3-.1-.5-2.3,0-2.6-.2-.9-.3.4-2,.8-3.1-1.7.7-3.5,1.4-5.4,2-15.9,5.4-33.8,5.8-40.9,5.3-2.5-.2-5.8-.5-9.4-1,.4.6.6,1.2,1.2,1.7.6.5,1.6.3,2.3.5.7.2.6.9,1.2,1.1,1.4.6,1.4-.9,2.3-.9s2.3.6,3.5.3c.8-.2,3.2-.8,4-.6.9.2.7,1.4,1.9,1.3.7,0,1.1-.9,1.9-.8,1.8.2,1,1.5.9,2,2.1,0,4.1-.2,6-.3h0ZM205.7,248.5c10.2-5.4,15.6-10.3,21.4-14.7,5.8-4.4,16.9-17.4,21.9-25.6.3-.4.5-.9.8-1.4-.4.2-.8.5-1.2.9-.5.7-.9,1.5-1.5,2.1-1.2,1.3-2.8,2.1-3.9,3.4-.9,1.1-1,2.6-1.8,3.7-.6.8-2.1,1-2.6,1.9-.5.8-.5,2.1-1.1,2.8-1.1,1.4-2.8,1.6-2.7-.6,0-.4.3-.6.4-.9-1.4,1.5-2.9,3.1-4.5,4.6.4,1,1.8.1.2,2.3-.4.5-.4,1.3-.9,1.8-.8.8-2.1,1.1-3,1.7-.7.6-1,1.6-1.7,2.1-.5.4-1.3.3-1.8.7-.6.5-.4,1.7-.9,2.4-.4.6-3.6,2.2-4.6,1.9-.5-.1-.1-1.2.1-2.3-3.1,2.4-5.5,4.2-5.5,4.2,0,0-.8.5-2.2,1.3.8.5,3.1.6.4,2.7-.5.4-1.2.6-1.7.9-.4.3-.6.9-1.2,1.1-.8.3-1.6-.2-2.4.3-.5.4-.5,1.1-1,1.5-.4.3-.9,0-1.4.3-.6.3-.6,1-1.3,1.2-1.6.5-.8-.9-2.6-.9s-.6,0-.9.3-.2.8-.3,1.2c0,1-.1,1.8-.2,2.4,2.6-1.1,5.2-2.3,7.5-3.6h0Z"/>
  <path class="cls-61" d="M248.9,206.5c1.2-1.2.2-2.1.6-3.5,0-.3,1-1.8,1.2-2,.3-.3.8,0,.9-.4.4-.9.9-2,1.2-2.9.3-.7.2-1.5.5-2.2.4-1.1,1.6-.1,2.1-2,.4-1.4.4-2.2.5-3.6,0-.5.6-1.4.9-1.9.6-1.1,1,.3,1.9.6.6-1.6,1.9-3.1,3-4.3-.3,0-.4-.7-.6-1.1-.1-.3,1.4-.4,1.5-1.1,0-.5,1.6-1.8,1.5-2.4,0-.4,1.2-1.2.9-1.5-2.8,1-7.4,5.6-8.6,8.6-2.2,5.3-6.9,13.8-6.9,13.8,0,0-1.6,3.2-4.7,7.7,1.4-.6,2.9-.4,4.1-1.7h0Z"/>
  <g>
    <path class="cls-48" d="M346.6,160.3c-11.6,5.8-17.2,1.4-19.7.2-3.2-1.6-5-2.3-9.2-3.3-4.2-1-9.1-.7-11.3-.3-2.2.4-9,1.7-10.3,2-1.3.3-4.4-.3-7.7-1.4-3.3-1.1-10.5-4.8-10.5-4.8,0,0-2.9-1.1-7.4-1.2-4.5-.1-7,.7-8.9.9-2.7.2-4.6,0-8.8-.9-.4-.1-.9-.3-1.3-.5-4-1.6-8.2-4.8-8.2-4.8l-6.7-6.2s-5.5-6.7-7.6-11c-2.1-4.4-3.4-7.8-3.8-10.6-.4-2.9-.4-5.9.6-9.7,1-3.8,3.2-8.6,3.2-8.6,0,0,.2-2.4-.7-9-1.4-7.3-5.8-9.1-9.1-15.3-3.3-6.1-7.9-5.9-7.9-5.9,5.6,2.7,5.1,4.9,5.1,4.9-7.2.2-12.9-6.7-12.9-6.7,0,0,2.3,5.2,10.9,8,8.6,2.8,15.3,14.7,13.3,23.6-1.5,3.4-2.6,6.2-3.3,9.5-.8,3.3-.8,5.8-.8,5.8v3.8s-3.1-9.4-3.1-9.4c0,0-2.6-8.9-4.1-12.1-1.6-3.2-3.8-6.4-6.3-8.9s-4.8-4.8-6-6.5c-1.2-1.8-5-7.3-5-7.3,0,0-3.7-5.3-7.3-6.4-3.6-1-6.7.3-6.7.3h1.6c0,0,3.2-.2,5.8,1.2,2.6,1.4,5.7,5.6,5.7,5.6l3.1,5,2.3,3.2,2.6,2.8s-2.5-.1-5.4.6c-2.9.8-5.6,2.2-8.3,2.1-2.6,0-4.8-1.7-4.8-1.7,0,0,.2.6,1.5,1.5,1.3.9,3.4,1.2,4.9,1.3,1.6,0,5-1.2,7.4-1.6,2.4-.5,4.3-.3,4.3-.3l1.8.2s3.2,2.5,5.1,5.6c2,3.2,3.8,7.9,3.8,7.9l2.2,6.9,2.4,8.1,3.2,7.9s2.2,4.5,3.8,7.3c1.6,2.8,4.2,6.3,4.2,6.3l2.9,3.6,1.3,1.9.7.7,5.5,4.1s4.4,2.8,6.4,4c4.2,2.5,4.1,3.6,1.8,5.3l-2.8,1.6-4.1,2.2s-3.7,2.3-6.3,4.3c-2.6,2-6.3,5.4-6.3,5.4,0,0-2.4,2.3-3,5.3l-1.5,3.5s-.9,2.3-1.5,5.7c-.5,3.4-.6,6.3-.5,10.1.1,3.8-.5,7.8-2.6,12.4-2.1,4.6-5.2,7.6-8.1,10.1-2.8,2.4-7.6,3.2-7.6,3.2l-7.6.7-4.6,1.2s-3.1,1.7-5.5,3.9c-2.3,2.2-3.6,4.6-3.6,4.6l2.3-2.5,2.2-2.2s2.9-2.3,5.4-3.2c2.5-.9,10.4-1,10.4-1,0,0-1.4,2-1.8,2.9-.4.9-1.1,3.8-2.4,5.8-1.2,2-3.7,2.2-3.7,2.2l-3.2.4,2,.3s2.3,0,4.1-1c1.8-1,2.3-3.5,3.7-6.7,1.4-3.2,3.3-4.5,3.3-4.5l2.2-.4s4.7-2.2,7.9-5.1c3.2-2.9,5.2-7.2,7-11.7,1.8-4.4,1.5-9.5,1.5-9.5,0,0-.2-5.3.3-9.2.5-3.9,1.6-6.8,3.1-9.2,1.5-2.5,3.9-5.1,7.5-8.4,3.6-3.3,11.1-7.4,11.1-7.4l5.5-2.1h0s3.1-.8,5.1-1.6c.6-.3,1.2-.5,1.5-.8,1.3-1,4.4-2.4,7-2.8,1.3-.2,2.6-.2,3.9-.2,1.7.1,3.4.5,5.1,1.1,3,1,5.8,2.5,5.8,2.5,0,0,7.3,3.9,12,3.8,4.7-.1,9.4-1.4,9.4-1.4,0,0,5.3-1.3,8.9-.9,3.5.4,7.6.7,9.7,1.7,2.1,1,4.3,2.5,6.5,3.6,5.4,2.4,12.7,1.9,17.4-1.7v-2.6Z"/>
    <path class="cls-55" d="M345.8,168.3c-.3,0-12.6-.9-17.1.6-2.1.7-4.8,2-8.8,2.3-4.1.3-11.5-2.4-11.5-2.4,0,0-5.6-2.1-10.9-3.5-5.3-1.5-8.6-.7-10.6-.1-2.1.6-5,1.4-9.2.8-4.2-.7-6.3-2.9-7.9-4.5-.7-.7-1.5-1.7-2.4-2.7-1.6-1.8-3.6-3.8-6.7-4.8-.5-.2-1.3-.3-2.1-.3h-.7c-4.5-.2-9.1.8-9.1.8,0,0-5.3,1-7.2,1.3-1.9.2-7.3.2-10.4-3-2.7-6.2-7-11.2-11.1-24.9-4.1-13.7-16-15-18-18.8-2-3.9-2.4-7-2.4-7,0,0-.2,6.6,3.3,10.2s6.7,2,10.2,8.9c0,0-6.5,2.7-13.5-5.7-7-8.3-12-12.3-18.3-13.4,0,0,9.4,3,13.1,10.2,3.7,7.1,8,10.9,18.5,11,0,0,3.8-1.8,6.1,8.6,2.3,10.4,6.6,15.4,6.6,15.4,1.1,3.1,2.1,4.8,2.1,4.8l2.7,3.7c1,1.1,2.4,1.9,4,2.4-1.3.6-3.4,1.9-5.4,4.1-3,3.4-4.6,9.9-7.1,13.5-2.5,3.6-4.1,5.1-8,5.7-3.8.6-9.6-.9-9.6-.9,0,0-5.1-.8-7.9-.1-2.8.7-5.4,2.2-7.9,5-2.5,2.8-5.9,9.8-5.9,9.8,0,0-1.6,2.4-3.7,4.5s-5,2.9-5,2.9c0,0,2.1-.1,3.4-.8,1.4-.6,3.4-2.2,3.4-2.2,0,0-1.5,3.2-2.1,6.5-.6,3.3-1.5,6.7-2,10.6-.4,2.8-3.4,4.8-5.1,5.8,2.1-.9,5.7-2.3,6.1-4,.4-2.2,1-6,1.5-9.4.4-3.4,1.3-5.8,1.9-7.2.6-1.4,2.6-5.8,4.5-9.8,1.9-3.9,3.9-5.7,6.2-7.9,2.3-2.2,4.8-2.6,7.4-2.7,2.7-.2,8.7,1.6,12.6,1.9,3.9.4,7.5-1.9,7.5-1.9,0,0-.2,3.3-1.6,8.2-1.4,4.9-3.8,9.1-3.8,9.1,0,0-2.2-.5-4.8.1-2.6.7-3.1,1.5-3.1,1.5,0,0,1.9-.4,3.2-.7,1.3-.3,4.1,0,4.1,0l-.8,1.5s-1.2,1.5-2.5,3.2c-1.4,1.7-2.1,2.8-2.1,2.8,0,0,2.4-2,3.1-2.8.7-.9,2.9-3.8,2.9-3.8,0,0,3.2-5.3,4.8-9.8,1.6-4.5,2.2-10.3,2.2-10.3,0,0,1.3-1.5,2.5-3.6,1.1-2,3.8-8.3,5.4-10.7,1.6-2.4,3.1-4.3,6.6-5.7,3.1-1.2,5-1.4,6.4-1.6,0,0,0,0,.1,0,1.7-.2,6.8-1.8,6.8-1.8,0,0,3.9-.8,6.6-.7.1,0,.3,0,.4,0,1.9,0,4.1.3,5.9,1,2.7,1,5.3,5.8,6.4,6.7,1.1.9,3.7,3.2,6.8,4.6,3.1,1.4,7.9.8,10.9,0,3-.9,4.1-.6,7.1-.8,3-.2,7.8,1.3,12.1,2.8,4.3,1.5,10.1,3.5,13,3.8,2.8.3,6.6-.3,9.2-1.3,5.1-3.1,19.2-1.9,19.2-1.9,0,0,.2-2.7,0-2.8Z"/>
  </g>
</svg>
